# Blender v2.70 (sub 0) OBJ File: 'platform15.blend'
# www.blender.org
o platformSolarPanelBase_Plane.025
v -0.106547 -0.564735 0.008063
v -0.094060 -0.569100 0.008063
v -0.102334 -0.546422 0.008063
v -0.090414 -0.552158 0.008063
v -0.093441 -0.532956 0.008063
v -0.084896 -0.543053 0.008063
v -0.060412 -0.516098 0.008063
v -0.053172 -0.527169 0.008063
v -0.083334 -0.525545 0.008063
v -0.077155 -0.537197 0.008063
v -0.106892 -0.594488 0.008794
v -0.092854 -0.597819 0.008794
v -0.059557 -0.607633 0.016487
v -0.109651 -0.596330 0.024755
v -0.125655 -0.607403 0.058475
v -0.131074 -0.606294 0.058475
v -0.134743 -0.610433 0.058475
v -0.132993 -0.615679 0.058475
v -0.127575 -0.616788 0.058475
v -0.123906 -0.612649 0.058475
v -0.106933 -0.608426 0.023034
v -0.099839 -0.596140 0.017627
v -0.095598 -0.611306 0.016742
v -0.067670 -0.623520 0.016742
v -0.106547 -0.564735 -0.008063
v -0.094060 -0.569100 -0.008063
v -0.102334 -0.546422 -0.008063
v -0.090414 -0.552158 -0.008063
v -0.093441 -0.532956 -0.008063
v -0.084896 -0.543053 -0.008063
v -0.060412 -0.516098 -0.008063
v -0.053172 -0.527169 -0.008063
v -0.083334 -0.525545 -0.008063
v -0.077155 -0.537197 -0.008063
v -0.106892 -0.594488 -0.008794
v -0.092854 -0.597819 -0.008794
v -0.059557 -0.607633 -0.016487
v -0.109651 -0.596330 -0.024755
v -0.125655 -0.607403 -0.058475
v -0.131074 -0.606294 -0.058475
v -0.134743 -0.610433 -0.058475
v -0.132993 -0.615679 -0.058475
v -0.127575 -0.616788 -0.058475
v -0.123906 -0.612649 -0.058475
v -0.106933 -0.608426 -0.023034
v -0.099839 -0.596140 -0.017627
v -0.095598 -0.611306 -0.016742
v -0.067670 -0.623520 -0.016742
v -0.092986 -0.596634 0.008063
v -0.105841 -0.593528 0.008063
v -0.092986 -0.596634 -0.008063
v -0.105841 -0.593528 -0.008063
v -0.106547 -0.564735 0.007873
v -0.102334 -0.546422 0.007873
v -0.093441 -0.532956 0.007873
v -0.060412 -0.516098 0.007873
v -0.131074 -0.606294 0.057099
v -0.083334 -0.525545 0.007873
v -0.106892 -0.594488 0.008587
v -0.110504 -0.596692 0.024106
v -0.125655 -0.607403 0.057099
v -0.123906 -0.612649 0.057099
v -0.127575 -0.616788 0.057099
v -0.132993 -0.615679 0.057099
v -0.134743 -0.610433 0.057099
v -0.107694 -0.608596 0.021608
v -0.095598 -0.611306 0.015388
v -0.067670 -0.623520 0.015388
v -0.105841 -0.593528 0.007873
v -0.131074 -0.606294 -0.056235
v -0.110504 -0.596692 -0.023872
v -0.125655 -0.607403 -0.056235
v -0.123906 -0.612649 -0.056235
v -0.127575 -0.616788 -0.056235
v -0.132993 -0.615679 -0.056235
v -0.134743 -0.610433 -0.056235
v -0.107582 -0.608540 -0.021743
v -0.095598 -0.611306 -0.015835
v -0.067670 -0.623520 -0.015835
v -0.059557 -0.607633 -0.014914
v -0.100761 -0.595924 -0.016472
v -0.100596 -0.595963 0.016679
v -0.059557 -0.607633 0.015109
vt 0.938991 0.905123
vt 0.954124 0.906669
vt 0.953269 0.918672
vt 0.923307 0.951097
vt 0.924541 0.932292
vt 0.938019 0.932691
vt 0.929829 0.984504
vt 0.954587 0.990118
vt 0.954316 0.992314
vt 0.924503 0.919442
vt 0.938627 0.918221
vt 0.938709 0.905122
vt 0.923857 0.907028
vt 0.924479 0.878720
vt 0.953050 0.933308
vt 0.953693 0.951521
vt 0.936354 0.950625
vt 0.913289 0.975063
vt 0.929504 0.984491
vt 0.928603 0.986520
vt 0.902313 0.993784
vt 0.902299 0.987361
vt 0.904901 0.987355
vt 0.857091 0.928740
vt 0.848042 0.935432
vt 0.848657 0.918982
vt 0.902286 0.980938
vt 0.904887 0.980932
vt 0.902273 0.974516
vt 0.904873 0.974511
vt 0.902264 0.968097
vt 0.904860 0.968095
vt 0.737415 0.774452
vt 0.765962 0.812045
vt 0.753109 0.819678
vt 0.730850 0.765083
vt 0.736837 0.767872
vt 0.930387 0.823955
vt 0.928610 0.817716
vt 0.939417 0.814637
vt 0.967108 0.920683
vt 0.985699 0.921982
vt 0.985075 0.933556
vt 0.809312 0.940119
vt 0.818092 0.928088
vt 0.827332 0.935372
vt 0.970932 0.880155
vt 0.989147 0.881701
vt 0.986655 0.911066
vt 0.968303 0.909220
vt 0.974637 0.989412
vt 0.993329 0.979997
vt 0.994847 0.980935
vt 0.858476 0.927714
vt 0.866143 0.939227
vt 0.865085 0.940251
vt 0.904855 0.961694
vt 0.917024 0.872768
vt 0.909797 0.885923
vt 0.908777 0.885919
vt 0.779479 0.820344
vt 0.873703 0.920217
vt 0.872180 0.920221
vt 0.872093 0.885935
vt 0.966797 0.933372
vt 0.985521 0.951639
vt 0.763293 0.829980
vt 0.813693 0.832782
vt 0.967801 0.953778
vt 0.956470 0.881515
vt 0.974802 0.991045
vt 0.888646 0.842484
vt 0.883571 0.828707
vt 0.938873 0.918227
vt 0.941194 0.820876
vt 0.936679 0.825535
vt 0.868128 0.826666
vt 0.828208 0.935354
vt 0.874503 0.844034
vt 0.826324 0.834299
vt 0.834341 0.814969
vt 0.859067 0.878408
vt 0.769019 0.961919
vt 0.808506 0.939041
vt 0.726019 0.775454
vt 0.725440 0.768874
vt 0.732006 0.778243
vt 0.933124 0.813057
vt 0.866426 0.871988
vt 0.864800 0.872846
vt 0.824902 0.853102
vt 0.936005 0.950568
vt 0.939012 0.881655
vt 0.928828 0.986511
vt 0.769084 0.994055
vt 0.769071 0.987632
vt 0.770670 0.987629
vt 0.770657 0.981205
vt 0.769044 0.974784
vt 0.770643 0.974781
vt 0.769031 0.968357
vt 0.770632 0.968354
vt 0.770625 0.961918
vt 0.873615 0.885924
vt 0.908751 0.920194
vt 0.938299 0.932715
vt 0.915555 0.872040
vt 0.826598 0.853104
vt 0.770683 0.994052
vt 0.902268 0.961685
vt 0.816963 0.927161
vt 0.909770 0.920195
vt 0.954257 0.853104
vt 0.956771 0.853102
vt 0.819051 0.877100
vt 0.820698 0.877124
vt 0.857217 0.878336
vt 0.827583 0.918588
vt 0.938585 0.881655
vt 0.912102 0.976118
vt 0.904914 0.993778
vt 0.807625 0.853207
vt 0.769058 0.981209
vn -0.489731 0.871853 0.000000
vn -0.358654 0.638478 -0.680929
vn -0.537950 0.512192 -0.669485
vn 0.674001 -0.058412 0.736381
vn 0.618427 -0.245857 0.746361
vn -0.683004 0.292703 0.669179
vn -0.919858 0.392193 0.000000
vn -0.520402 0.491684 -0.698111
vn -0.314035 0.933592 -0.172552
vn 0.489456 -0.441542 0.751946
vn -0.537950 0.512192 0.669485
vn -0.358654 0.638478 0.680929
vn 0.337199 -0.586383 0.736473
vn 0.289104 -0.691427 0.662078
vn -0.683004 0.292703 -0.669179
vn -0.729453 0.073763 -0.680013
vn -0.994903 0.100620 0.000000
vn 0.780419 0.256355 0.570238
vn -0.520402 0.491684 0.698111
vn -0.314035 0.933653 0.172185
vn 0.519272 -0.854579 0.000000
vn 0.316294 -0.948637 0.000000
vn 0.250649 -0.751701 -0.609973
vn 0.147496 0.986053 -0.076846
vn 0.409894 0.890805 -0.195959
vn -0.663381 -0.748253 0.000000
vn -0.525651 -0.592914 -0.609973
vn -0.979705 0.200385 0.000000
vn -0.776330 0.158757 -0.609973
vn -0.316294 0.948637 0.000000
vn -0.250649 0.751701 -0.609973
vn 0.653188 -0.268746 0.707877
vn 0.507462 -0.680105 0.529069
vn 0.236457 0.899564 0.367168
vn -0.525651 -0.592914 0.609973
vn 0.250649 -0.751701 0.609973
vn 0.352550 0.599628 -0.718406
vn 0.653218 -0.268746 -0.707816
vn 0.489456 -0.441542 -0.751946
vn -0.410260 0.911863 -0.010987
vn 0.148778 0.985931 0.075808
vn 0.289104 -0.691427 -0.662078
vn 0.337199 -0.586383 -0.736473
vn 0.780419 0.256355 -0.570238
vn 0.409864 0.891049 0.194983
vn 0.344279 0.777947 -0.525590
vn 0.230140 0.892636 -0.387585
vn -0.401898 0.915586 0.011567
vn 0.498886 -0.691000 -0.523057
vn -0.129582 -0.738487 -0.661672
vn -0.315744 -0.948820 -0.003174
vn -0.129582 -0.738487 0.661672
vn -0.400681 -0.916218 0.000000
vn -0.264439 -0.642568 0.719151
vn 0.618427 -0.245857 -0.746361
vn 0.345073 0.777673 0.525437
vn 0.674001 -0.058412 -0.736381
vn -0.253816 0.615824 -0.745880
vn -0.724204 0.689566 0.000000
vn -0.600452 0.799646 0.000000
vn 0.224879 0.726712 -0.649091
vn -0.264439 -0.642568 -0.719151
vn 0.352550 0.599628 0.718406
vn -0.250649 0.751701 0.609973
vn -0.776330 0.158757 0.609973
vn 0.069369 -0.996551 0.045228
vn -0.729453 0.073763 0.680013
vn -0.381059 0.924551 0.000000
vn -0.205329 0.978668 0.000000
vn -0.313730 -0.949492 0.003388
vn -0.400681 -0.916217 0.000000
vn -0.919126 0.393902 0.000000
vn 0.059023 -0.997497 -0.038759
vn 0.518601 -0.854976 0.000000
vn -0.205298 0.978668 0.000000
vn 0.224997 0.726631 0.649141
vn 0.277694 0.960665 0.003022
vn 0.277612 0.960688 -0.003082
vn -0.253815 0.615825 0.745880
s 1
f 58/1/1 33/2/2 29/3/3
f 2/4/4 4/5/5 3/6/6
f 69/7/7 52/8/8 35/9/9
f 4/5/5 6/10/10 5/11/11
f 9/12/12 10/13/13 8/14/14
f 27/15/15 25/16/16 53/17/17
f 6/10/10 10/13/13 9/12/12
f 49/18/18 50/19/19 11/20/20
f 73/21/21 74/22/22 43/23/23
f 81/24/24 35/25/9 36/26/25
f 75/27/26 42/28/27 43/23/23
f 76/29/28 41/30/29 42/28/27
f 70/31/30 40/32/31 41/30/29
f 20/33/32 21/34/33 14/35/34
f 18/36/35 19/37/36 20/33/32
f 39/38/37 44/39/38 42/40/27
f 30/41/39 6/42/10 4/43/5
f 60/44/40 82/45/41 11/46/20
f 32/47/42 8/48/14 10/49/13
f 34/50/43 10/49/13 6/42/10
f 51/51/44 49/52/18 12/53/45
f 46/54/46 38/55/47 71/56/48
f 39/57/37 40/32/31 70/31/30
f 45/58/49 47/59/50 78/60/51
f 14/35/34 21/34/33 23/61/52
f 68/62/53 24/63/54 23/64/52
f 28/65/55 4/43/5 2/66/4
f 22/67/56 23/61/52 24/68/54
f 27/15/15 28/65/55 26/69/57
f 29/3/3 30/41/39 28/65/55
f 33/2/2 31/70/58 32/47/42
f 33/2/2 34/50/43 30/41/39
f 51/51/44 36/71/25 35/9/9
f 38/72/47 45/73/49 44/39/38
f 55/74/59 29/3/3 27/15/15
f 41/75/29 40/76/31 39/38/37
f 47/77/50 45/73/49 38/72/47
f 11/46/20 59/78/60 60/44/40
f 46/79/46 37/80/61 48/81/62
f 25/16/16 52/8/8 69/7/7
f 37/82/61 46/54/46 81/24/24
f 15/83/63 14/84/34 60/44/40
f 16/85/64 17/86/65 15/87/63
f 43/88/23 42/40/27 44/39/38
f 18/36/35 20/33/32 15/87/63
f 66/89/66 21/90/33 20/91/32
f 1/92/67 50/19/19 49/18/18
f 2/66/4 49/52/18 51/51/44
f 51/51/44 52/8/8 25/16/16
f 56/93/68 58/1/1 9/12/12
f 58/1/1 55/74/59 5/11/11
f 69/7/7 59/94/60 11/20/20
f 20/95/32 19/96/36 63/97/22
f 64/98/26 63/97/22 19/96/36
f 17/99/65 65/100/28 64/98/26
f 16/101/64 57/102/30 65/100/28
f 61/103/69 57/102/30 16/101/64
f 21/90/33 66/89/66 67/104/70
f 79/105/71 68/62/53 67/104/70
f 54/106/72 53/17/17 1/92/67
f 55/74/59 54/106/72 3/6/6
f 61/103/69 60/44/40 71/56/48
f 77/107/73 66/89/66 62/108/74
f 53/17/17 69/7/7 50/19/19
f 62/109/74 63/97/22 74/22/22
f 75/27/26 74/22/22 63/97/22
f 65/100/28 76/29/28 75/27/26
f 70/31/30 76/29/28 65/100/28
f 61/103/69 72/110/75 70/31/30
f 66/89/66 77/107/73 78/60/51
f 22/111/56 82/45/41 60/44/40
f 47/59/50 48/112/62 79/105/71
f 39/57/37 72/110/75 71/56/48
f 77/107/73 73/113/21 44/114/38
f 56/93/68 31/70/58 33/2/2
f 35/25/9 81/24/24 71/56/48
f 13/115/76 83/116/77 82/45/41
f 83/116/77 80/117/78 36/26/25
f 82/45/41 83/116/77 12/118/45
f 11/46/20 82/45/41 12/118/45
f 80/117/78 81/24/24 36/26/25
f 55/74/59 58/1/1 29/3/3
f 1/92/67 2/4/4 3/6/6
f 59/94/60 69/7/7 35/9/9
f 3/6/6 4/5/5 5/11/11
f 7/119/79 9/12/12 8/14/14
f 54/106/72 27/15/15 53/17/17
f 5/11/11 6/10/10 9/12/12
f 12/120/45 49/18/18 11/20/20
f 44/121/38 73/21/21 43/23/23
f 74/22/22 75/27/26 43/23/23
f 75/27/26 76/29/28 42/28/27
f 76/29/28 70/31/30 41/30/29
f 15/87/63 20/33/32 14/35/34
f 41/75/29 39/38/37 42/40/27
f 28/65/55 30/41/39 4/43/5
f 34/50/43 32/47/42 10/49/13
f 30/41/39 34/50/43 6/42/10
f 36/71/25 51/51/44 12/53/45
f 81/24/24 46/54/46 71/56/48
f 72/110/75 39/57/37 70/31/30
f 77/107/73 45/58/49 78/60/51
f 22/67/56 14/35/34 23/61/52
f 67/104/70 68/62/53 23/64/52
f 26/69/57 28/65/55 2/66/4
f 13/122/76 22/67/56 24/68/54
f 25/16/16 27/15/15 26/69/57
f 27/15/15 29/3/3 28/65/55
f 34/50/43 33/2/2 32/47/42
f 29/3/3 33/2/2 30/41/39
f 52/8/8 51/51/44 35/9/9
f 39/38/37 38/72/47 44/39/38
f 54/106/72 55/74/59 27/15/15
f 46/79/46 47/77/50 38/72/47
f 59/78/60 35/25/9 71/56/48
f 47/77/50 46/79/46 48/81/62
f 53/17/17 25/16/16 69/7/7
f 59/78/60 71/56/48 60/44/40
f 80/117/78 37/82/61 81/24/24
f 61/103/69 15/83/63 60/44/40
f 17/86/65 18/36/35 15/87/63
f 62/108/74 66/89/66 20/91/32
f 2/4/4 1/92/67 49/18/18
f 26/69/57 2/66/4 51/51/44
f 26/69/57 51/51/44 25/16/16
f 7/119/79 56/93/68 9/12/12
f 9/12/12 58/1/1 5/11/11
f 50/19/19 69/7/7 11/20/20
f 62/109/74 20/95/32 63/97/22
f 18/123/35 64/98/26 19/96/36
f 18/123/35 17/99/65 64/98/26
f 17/99/65 16/101/64 65/100/28
f 15/83/63 61/103/69 16/101/64
f 23/64/52 21/90/33 67/104/70
f 78/60/51 79/105/71 67/104/70
f 3/6/6 54/106/72 1/92/67
f 5/11/11 55/74/59 3/6/6
f 72/110/75 61/103/69 71/56/48
f 73/113/21 77/107/73 62/108/74
f 1/92/67 53/17/17 50/19/19
f 73/21/21 62/109/74 74/22/22
f 64/98/26 75/27/26 63/97/22
f 64/98/26 65/100/28 75/27/26
f 57/102/30 70/31/30 65/100/28
f 57/102/30 61/103/69 70/31/30
f 67/104/70 66/89/66 78/60/51
f 14/84/34 22/111/56 60/44/40
f 78/60/51 47/59/50 79/105/71
f 38/55/47 39/57/37 71/56/48
f 45/58/49 77/107/73 44/114/38
f 58/1/1 56/93/68 33/2/2
f 22/111/56 13/115/76 82/45/41
f 12/118/45 83/116/77 36/26/25
