# Blender v2.70 (sub 0) OBJ File: 'asteroidsLOD3.blend'
# www.blender.org
o asteroidLOD7_Cube.014
v 0.288113 0.650872 -0.686304
v -0.517859 0.443183 -0.921689
v 1.766546 -0.024652 -0.300009
v 1.714613 0.303065 -0.428990
v 1.420761 0.488999 -0.635484
v 1.675692 0.017230 0.509357
v 1.795825 0.403884 -0.079450
v 1.742161 0.387642 0.180635
v 1.830276 0.119092 0.302921
v 1.903496 0.021932 0.005764
v 1.682287 0.528328 -0.268464
v 1.540517 0.630604 0.065211
v 1.189141 0.616762 0.448806
v 1.546421 0.255754 0.566876
v 0.989262 0.173113 0.810884
v 0.471615 0.217655 0.998530
v 1.063977 0.820602 -0.487628
v 1.019084 0.771242 0.081471
v 0.860734 0.479517 0.664703
v 0.327002 0.487626 0.813757
v -1.448192 0.706155 -0.356379
v -1.162612 0.631950 0.433284
v -0.441294 0.474145 -0.554971
v -0.868585 0.530256 -0.778613
v -0.181832 0.591331 -0.818214
v -0.437513 0.635306 -0.234611
v -0.913466 0.713573 -0.493494
v -0.958945 0.683482 0.058051
v -1.062247 0.451263 0.732520
v -0.540732 0.468523 0.787591
v 0.569275 0.818705 -0.438464
v -0.163848 0.802541 -0.423913
v -0.335950 0.746851 0.349545
v 0.513622 0.759871 0.068389
v 0.178062 0.660903 0.636684
v 1.031601 -0.276815 0.800890
v 0.541109 -0.407414 1.018224
v -0.319197 0.014148 0.938651
v -0.413444 0.272616 0.852667
v 0.250215 -0.265259 1.075170
v -1.327400 0.316323 0.628257
v -1.331038 0.094380 0.718906
v -1.148192 0.140602 0.803143
v -0.801433 0.195174 0.863200
v -1.403935 0.472985 0.501470
v -1.702444 0.238734 0.339898
v -1.379556 -0.062253 0.645509
v -1.607495 0.004034 0.342151
v -1.709371 0.602615 -0.301434
v -1.654652 0.529654 0.120123
v -1.831295 0.421614 -0.312000
v -1.797216 0.283564 0.027568
v -1.745744 0.148229 -0.360530
v -1.745106 0.049495 -0.023485
v -0.156866 -0.416250 0.967359
v -0.624115 -0.102780 0.794997
v -0.563403 -0.461375 0.755200
v -0.992976 -0.180865 0.782789
v -0.945345 -0.482272 0.650706
v -1.166728 -0.484879 0.533619
v -1.505267 -0.178831 -0.426258
v -1.572518 -0.174180 -0.108363
v -1.264181 0.492635 -0.765930
v -1.091982 0.651774 -0.674464
v -1.721150 0.492109 -0.479938
v -1.585390 0.229756 -0.570982
v -1.471780 -0.252030 0.211226
v -1.076889 0.275699 -0.919738
v -0.983349 0.028495 -1.040210
v -1.085490 -0.287898 -0.882614
v 1.074210 0.622927 -0.692735
v 0.671101 0.610077 -0.732141
v 1.028588 0.862994 -0.229925
v 0.629816 0.815631 -0.202246
v 1.485821 -0.221009 -0.572932
v 1.342927 0.236960 -0.755690
v -1.404187 -0.349974 -0.388908
v 0.703601 0.184623 -0.918860
v -0.238580 0.310407 -1.033097
v 0.167539 0.099491 -0.916698
v -0.621766 -0.253999 -1.040997
v 0.044018 -0.520096 -0.917940
v 1.155633 -0.098323 -0.865653
v 1.731022 -0.171661 0.175616
v 0.931469 0.534718 -0.140215
v 1.422163 -0.535025 -0.243886
v 1.041121 -0.694183 -0.395958
v 0.704264 -0.528988 -0.780914
v 0.489363 -0.821368 -0.370608
v -0.169475 -0.673175 -0.742360
v -0.883312 -0.483037 -0.909838
v -0.963967 -0.702128 -0.577346
v -1.146239 -0.640516 -0.037276
v -0.926965 -0.811796 -0.343328
v 1.159824 -0.541546 0.536569
v 1.278793 -0.653453 0.207982
v 0.556863 -0.862645 0.646810
v 0.897822 -0.873977 0.139676
v 0.212700 -0.676458 0.829536
v 0.262724 -0.886316 0.000144
v -0.372683 -0.917111 -0.177232
v 0.028661 -0.877069 0.399492
v -0.499030 -0.893321 0.114389
v -0.264379 -0.735749 -0.505495
v -0.826693 -0.717707 0.461459
v -0.370982 -0.734650 0.687803
vt 0.420462 0.466055
vt 0.401409 0.470826
vt 0.417127 0.449030
vt 0.947496 0.496959
vt 0.951704 0.483556
vt 0.963914 0.481335
vt 0.936253 0.522880
vt 0.965498 0.535498
vt 0.927766 0.497945
vt 0.376710 0.451730
vt 0.967171 0.502018
vt 0.958431 0.561127
vt 0.935416 0.561114
vt 0.993393 0.515367
vt 0.983100 0.528764
vt 0.258999 0.724335
vt 0.272275 0.737518
vt 0.232854 0.728306
vt 0.226883 0.737660
vt 0.268612 0.746361
vt 0.256553 0.759831
vt 0.248800 0.464928
vt 0.244270 0.437593
vt 0.279149 0.452417
vt 0.253189 0.486743
vt 0.297659 0.483392
vt 0.280415 0.475414
vt 0.339515 0.427584
vt 0.372229 0.424233
vt 0.373489 0.436813
vt 0.573759 0.809281
vt 0.573070 0.822339
vt 0.546040 0.819290
vt 0.521154 0.794482
vt 0.964317 0.594145
vt 0.316345 0.403347
vt 0.296923 0.454526
vt 0.343441 0.096859
vt 0.318608 0.078821
vt 0.347104 0.064724
vt 0.920535 0.514367
vt 0.925250 0.482209
vt 0.276667 0.496052
vt 0.161289 0.863634
vt 0.178254 0.850283
vt 0.197168 0.862101
vt 0.327546 0.472127
vt 0.283588 0.417197
vt 0.462631 0.217342
vt 0.476743 0.193098
vt 0.471472 0.232599
vt 0.196996 0.875183
vt 0.180755 0.876911
vt 0.365027 0.097166
vt 0.347692 0.438980
vt 0.907153 0.559259
vt 0.942732 0.594848
vt 0.902802 0.593111
vt 0.961064 0.633410
vt 0.979870 0.594124
vt 0.975993 0.636858
vt 0.989854 0.553733
vt 0.495157 0.826117
vt 0.487953 0.816855
vt 0.497755 0.797691
vt 0.479248 0.802447
vt 0.983255 0.660923
vt 0.961687 0.653526
vt 0.942423 0.632581
vt 0.518016 0.809880
vt 0.505563 0.814708
vt 0.527400 0.834241
vt 0.519921 0.844516
vt 0.496588 0.837355
vt 0.230086 0.420971
vt 0.213717 0.460434
vt 0.571691 0.836365
vt 0.566397 0.849762
vt 0.544643 0.850908
vt 0.914894 0.609898
vt 0.473385 0.132122
vt 0.492881 0.148553
vt 0.470140 0.156411
vt 0.492881 0.169516
vt 0.721510 0.699063
vt 0.712378 0.714900
vt 0.690514 0.710369
vt 0.777452 0.267983
vt 0.799628 0.261296
vt 0.801031 0.277860
vt 0.720417 0.763443
vt 0.697840 0.758144
vt 0.694880 0.740107
vt 0.820821 0.248390
vt 0.825994 0.255365
vt 0.548230 0.838670
vt 0.055580 0.762525
vt 0.041079 0.755051
vt 0.057957 0.734472
vt 0.237975 0.477552
vt 0.227612 0.489295
vt 0.197098 0.476440
vt 0.196951 0.462773
vt 0.580951 0.831234
vt 0.026306 0.765478
vt 0.017324 0.755767
vt 0.030135 0.741500
vt 0.068724 0.727043
vt 0.051039 0.696539
vt 0.847748 0.263784
vt 0.865961 0.278411
vt 0.858562 0.293537
vt 0.843858 0.281301
vt 0.817325 0.278454
vt 0.027620 0.691371
vt 0.016284 0.703779
vt 0.240952 0.504962
vt 0.344473 0.451423
vt 0.378656 0.470094
vt 0.406574 0.428284
vt 0.439515 0.135603
vt 0.454866 0.156503
vt 0.455127 0.200331
vt 0.190966 0.824777
vt 0.164076 0.813206
vt 0.173506 0.788146
vt 0.219676 0.856357
vt 0.218796 0.838619
vt 0.352667 0.474423
vt 0.248209 0.520491
vt 0.008018 0.721973
vt 0.356759 0.500640
vt 0.322259 0.506217
vt 0.397564 0.487284
vt 0.295566 0.505816
vt 0.003766 0.674352
vt 0.007668 0.653337
vt 0.059139 0.627405
vt 0.042955 0.666298
vt 0.386863 0.506947
vt 0.455361 0.099497
vt 0.444033 0.070136
vt 0.476613 0.069228
vt 0.148847 0.850890
vt 0.913166 0.498172
vt 0.205471 0.776308
vt 0.177768 0.761744
vt 0.014017 0.600574
vt 0.060290 0.593185
vt 0.030361 0.571770
vt 0.214257 0.737306
vt 0.073714 0.641952
vt 0.061159 0.681226
vt 0.066070 0.746916
vt 0.832309 0.313605
vt 0.856786 0.317625
vt 0.828239 0.340235
vt 0.138837 0.810746
vt 0.083110 0.691363
vt 0.095483 0.693824
vt 0.649909 0.339024
vt 0.680467 0.339731
vt 0.682824 0.363337
vt 0.892991 0.542354
vt 0.713422 0.327225
vt 0.703203 0.294521
vt 0.141763 0.784270
vt 0.745692 0.378395
vt 0.713718 0.390428
vt 0.707524 0.363251
vt 0.728251 0.303521
vt 0.718483 0.280085
vt 0.745699 0.279506
vt 0.748800 0.354661
vt 0.790441 0.329183
vt 0.791181 0.348583
vt 0.745698 0.270374
vt 0.767479 0.243238
vt 0.788364 0.251584
vt 0.794562 0.377097
vt 0.793649 0.363800
vt 0.751418 0.327169
vt 0.083912 0.652762
vt 0.103614 0.664951
vt 0.799735 0.297466
vt 0.766643 0.297637
vt 0.775611 0.281560
vt 0.384307 0.058619
vt 0.476562 0.181399
vt 0.716006 0.748746
vt 0.807635 0.247345
vt 0.021506 0.629968
vt 0.216506 0.812867
vt 0.224878 0.749460
vt 0.656287 0.363391
vt 0.680181 0.315082
vn 0.809809 0.173956 -0.560289
vn 0.515702 0.480667 -0.709189
vn 0.706107 0.665639 -0.241493
vn 0.738792 0.578112 0.346263
vn 0.857265 0.514695 -0.012085
vn 0.522599 0.374950 0.765679
vn 0.231635 0.803186 0.548784
vn 0.903409 0.029817 0.427717
vn 0.194342 0.890652 -0.410962
vn 0.521836 0.824244 0.219733
vn 0.168432 0.720450 0.672689
vn 0.339610 0.262429 0.903195
vn 0.138737 0.989868 0.029206
vn 0.088229 0.938871 0.332743
vn -0.015259 0.921323 0.388409
vn -0.242378 0.622059 0.744469
vn -0.016358 0.994354 0.104617
vn -0.085269 0.973998 0.209784
vn -0.245186 0.942381 -0.227485
vn -0.228034 0.950560 -0.210669
vn 0.161443 0.957488 -0.239021
vn 0.073794 0.737571 -0.671194
vn -0.149663 0.800012 -0.580981
vn -0.178564 0.933500 -0.310892
vn -0.023835 0.979339 0.200720
vn -0.284646 0.938994 -0.192999
vn -0.602161 0.793451 -0.088137
vn -0.663198 0.646290 0.377361
vn 0.110630 0.701376 0.704123
vn 0.128697 0.878384 0.460250
vn -0.076785 0.612842 0.786431
vn 0.695425 -0.200354 0.690085
vn 0.967254 -0.250587 -0.039888
vn -0.129215 0.761284 -0.635395
vn 0.827021 -0.387219 -0.407514
vn 0.041017 0.770623 -0.635945
vn -0.235908 0.970336 0.052400
vn 0.456710 -0.248878 0.854060
vn 0.164586 0.369213 0.914640
vn 0.248451 -0.323649 0.912961
vn -0.058443 0.307596 0.949705
vn -0.547777 0.018586 0.836390
vn -0.314188 0.052767 0.947874
vn -0.139378 0.054323 0.988739
vn -0.225318 0.068972 0.971831
vn -0.545274 0.583178 0.602069
vn -0.549181 0.334697 0.765740
vn -0.878445 0.146519 0.454787
vn -0.824366 -0.437635 0.358959
vn -0.636158 -0.337352 0.693838
vn -0.968200 0.165349 -0.187597
vn -0.852535 -0.347209 -0.390637
vn -0.889889 -0.448225 0.084414
vn -0.031404 -0.130741 0.990905
vn -0.267373 -0.396710 0.878109
vn -0.240577 -0.239204 0.940672
vn -0.175481 -0.297617 0.938383
vn -0.298715 -0.506424 0.808863
vn -0.965850 0.062136 0.251442
vn -0.766259 -0.457045 -0.451582
vn -0.081118 0.816157 -0.572069
vn -0.384991 0.449202 -0.806207
vn -0.684286 0.364483 -0.631550
vn -0.619556 -0.193548 -0.760674
vn -0.740623 -0.619129 -0.261025
vn -0.628559 -0.355724 -0.691610
vn -0.777123 -0.629261 -0.008606
vn -0.773278 -0.609760 0.173650
vn -0.568499 -0.647908 0.506912
vn -0.395337 0.062624 -0.916379
vn -0.336497 0.272744 -0.901303
vn -0.273659 0.946104 -0.173040
vn 0.165258 0.535600 -0.828120
vn 0.663334 -0.481743 -0.572636
vn 0.666768 -0.700522 -0.254250
vn 0.363018 -0.827021 -0.429212
vn 0.419119 0.182314 -0.889439
vn 0.033753 0.605426 -0.795160
vn 0.079134 0.174841 -0.981384
vn 0.151372 0.129398 -0.979949
vn 0.117862 0.290719 -0.949492
vn 0.109409 -0.493942 -0.862545
vn -0.025269 -0.234657 -0.971740
vn 0.253887 -0.232174 -0.938955
vn -0.637375 0.105720 0.763267
vn 0.780114 -0.595477 0.191809
vn 0.215186 -0.583911 -0.782769
vn 0.080691 -0.936644 -0.340770
vn -0.010834 -0.867000 -0.498184
vn -0.319163 -0.586963 -0.744011
vn -0.627796 -0.774499 0.077548
vn -0.379620 -0.909116 -0.171300
vn 0.601367 -0.769768 0.213965
vn -0.407971 -0.794122 -0.450423
vn 0.540727 -0.613056 0.575945
vn 0.162755 -0.867183 0.470595
vn 0.295144 -0.955168 0.022034
vn -0.079714 -0.700888 0.708762
vn 0.016480 -0.995544 -0.092624
vn -0.162267 -0.974517 0.154729
vn 0.001953 -0.978790 -0.204810
vn 0.004364 -0.939360 -0.342814
vn -0.051485 -0.973876 0.221046
vn -0.359630 -0.847865 0.389538
vn -0.185247 -0.736656 0.650349
vn -0.289071 -0.305918 0.907071
vn 0.637375 -0.105720 -0.763267
s 1
f 4/1/1 5/2/2 11/3/3
f 8/4/4 7/5/5 11/6/3
f 14/7/6 8/4/4 13/8/7
f 9/9/8 8/4/4 14/7/6
f 11/3/3 5/2/2 17/10/9
f 8/4/4 12/11/10 13/8/7
f 19/12/11 15/13/12 14/7/6
f 73/14/13 18/15/14 12/11/10
f 22/16/15 29/17/16 28/18/17
f 33/19/18 32/20/19 26/21/20
f 27/22/21 28/23/17 26/24/20
f 24/25/22 27/22/21 26/24/20
f 25/26/23 23/27/24 26/24/20
f 34/28/25 18/29/14 73/30/13
f 21/31/26 49/32/27 50/33/28
f 22/34/15 21/31/26 50/33/28
f 12/11/10 18/15/14 13/8/7
f 15/13/12 19/12/11 20/35/29
f 35/36/30 34/28/25 32/37/19
f 30/38/31 35/39/30 33/40/18
f 6/41/32 9/9/8 14/7/6
f 9/9/8 10/42/33 7/5/5
f 24/25/22 23/27/24 2/43/34
f 10/44/33 3/45/35 4/46/1
f 32/37/19 34/28/25 1/47/36
f 28/23/17 33/48/18 26/24/20
f 13/49/7 18/50/14 19/51/11
f 23/27/24 25/26/23 2/43/34
f 4/46/1 11/52/3 7/53/5
f 29/54/16 30/38/31 33/40/18
f 34/28/25 74/55/37 1/47/36
f 25/26/23 32/37/19 1/47/36
f 15/13/12 36/56/38 6/41/32
f 16/57/39 37/58/40 36/56/38
f 16/57/39 20/35/29 39/59/41
f 20/35/29 35/60/30 30/61/31
f 35/60/30 20/35/29 34/62/25
f 20/35/29 19/12/11 34/62/25
f 42/63/42 43/64/43 29/65/16
f 43/64/43 44/66/44 29/65/16
f 29/67/16 44/68/44 30/61/31
f 39/59/41 30/61/31 44/68/44
f 38/69/45 39/59/41 44/68/44
f 45/70/46 41/71/47 29/65/16
f 41/71/47 45/70/46 46/72/48
f 42/63/42 41/71/47 46/72/48
f 46/72/48 48/73/49 47/74/50
f 22/75/15 28/23/17 21/76/26
f 50/33/28 49/32/27 51/77/51
f 51/77/51 53/78/52 54/79/53
f 37/58/40 16/57/39 40/80/54
f 16/57/39 38/69/45 40/80/54
f 40/81/54 38/82/45 55/83/55
f 55/83/55 38/82/45 56/84/56
f 44/85/44 56/86/56 38/87/45
f 56/88/56 58/89/57 59/90/58
f 43/91/43 58/92/57 56/93/56
f 42/94/42 47/95/50 58/89/57
f 45/70/46 22/34/15 50/33/28
f 45/70/46 50/33/28 52/96/59
f 52/96/59 54/79/53 48/73/49
f 59/90/58 58/89/57 47/95/50
f 54/97/53 53/98/52 61/99/60
f 21/76/26 27/22/21 64/100/61
f 27/22/21 24/25/22 64/100/61
f 24/25/22 63/101/62 64/100/61
f 64/100/61 65/102/63 49/103/27
f 51/77/51 49/32/27 65/104/63
f 51/105/51 65/106/63 66/107/64
f 77/108/65 61/99/60 70/109/66
f 48/110/49 54/111/53 62/112/67
f 48/110/49 67/113/68 60/114/69
f 70/109/66 61/99/60 69/115/70
f 68/116/71 61/99/60 66/107/64
f 63/101/62 24/25/22 68/117/71
f 61/99/60 68/116/71 69/115/70
f 31/118/72 17/10/9 71/119/73
f 74/55/37 73/30/13 17/10/9
f 73/30/13 12/120/10 11/3/3
f 17/10/9 73/30/13 11/3/3
f 74/121/37 31/122/72 1/123/36
f 75/124/74 86/125/75 87/126/76
f 5/127/2 4/46/1 76/128/77
f 5/2/2 71/119/73 17/10/9
f 31/118/72 72/129/78 1/47/36
f 69/130/70 68/117/71 24/25/22
f 63/131/62 68/116/71 66/107/64
f 1/47/36 78/132/79 80/133/80
f 72/129/78 78/132/79 1/47/36
f 76/134/77 71/119/73 5/2/2
f 76/134/77 78/132/79 72/129/78
f 1/47/36 80/133/80 79/135/81
f 25/26/23 79/135/81 2/43/34
f 69/115/70 2/136/34 79/137/81
f 82/138/82 81/139/83 79/137/81
f 76/134/77 83/140/84 78/132/79
f 76/141/85 83/142/85 75/143/85
f 75/124/74 3/45/35 84/144/86
f 10/44/33 84/144/86 3/45/35
f 6/41/32 84/145/86 10/42/33
f 88/146/87 87/126/76 89/147/88
f 78/148/79 88/149/87 82/138/82
f 75/124/74 87/126/76 88/146/87
f 61/99/60 53/98/52 66/107/64
f 78/148/79 83/150/84 88/149/87
f 63/131/62 66/107/64 65/106/63
f 88/146/87 89/147/88 90/151/89
f 82/138/82 90/152/89 91/153/90
f 69/115/70 81/139/83 91/153/90
f 77/108/65 70/109/66 91/153/90
f 61/99/60 77/108/65 62/154/67
f 67/113/68 93/155/91 60/114/69
f 67/113/68 62/112/67 77/156/65
f 93/155/91 77/156/65 94/157/92
f 86/125/75 84/144/86 96/158/93
f 77/108/65 92/159/94 94/160/92
f 6/161/32 95/162/95 96/163/93
f 6/41/32 36/56/38 95/164/95
f 96/163/93 95/162/95 97/165/96
f 37/166/40 97/165/96 95/162/95
f 86/125/75 96/158/93 98/167/97
f 89/168/88 87/169/76 98/170/97
f 99/171/98 97/165/96 37/166/40
f 40/172/54 99/171/98 37/166/40
f 55/173/55 99/171/98 40/172/54
f 100/174/99 89/168/88 98/170/97
f 103/175/100 101/176/101 100/174/99
f 100/177/99 101/178/101 104/179/102
f 90/180/89 89/168/88 104/181/102
f 99/171/98 102/182/103 97/165/96
f 98/170/97 97/165/96 102/182/103
f 89/168/88 100/174/99 104/181/102
f 90/152/89 104/183/102 92/159/94
f 92/159/94 104/183/102 101/184/101
f 101/176/101 103/175/100 94/157/92
f 94/157/92 103/175/100 105/185/104
f 60/114/69 93/155/91 105/185/104
f 59/90/58 60/114/69 105/185/104
f 102/182/103 99/171/98 106/186/105
f 57/187/106 106/186/105 99/171/98
f 59/90/58 105/185/104 106/186/105
f 102/182/103 106/186/105 105/185/104
f 4/46/1 3/45/35 75/124/74
f 64/100/61 63/101/62 65/102/63
f 28/23/17 27/22/21 21/76/26
f 19/12/11 18/15/14 34/62/25
f 12/11/10 8/4/4 11/6/3
f 13/8/7 19/12/11 14/7/6
f 23/27/24 24/25/22 26/24/20
f 32/37/19 25/26/23 26/24/20
f 74/55/37 34/28/25 73/30/13
f 16/57/39 15/13/12 20/35/29
f 33/48/18 35/36/30 32/37/19
f 8/4/4 9/9/8 7/5/5
f 7/53/5 10/44/33 4/46/1
f 28/188/17 29/54/16 33/40/18
f 14/7/6 15/13/12 6/41/32
f 15/13/12 16/57/39 36/56/38
f 38/69/45 16/57/39 39/59/41
f 39/59/41 20/35/29 30/61/31
f 41/71/47 42/63/42 29/65/16
f 22/34/15 45/70/46 29/65/16
f 42/63/42 46/72/48 47/74/50
f 52/96/59 50/33/28 51/77/51
f 52/96/59 51/77/51 54/79/53
f 57/189/106 55/83/55 56/84/56
f 57/187/106 56/88/56 59/90/58
f 44/190/44 43/91/43 56/93/56
f 43/191/43 42/94/42 58/89/57
f 46/72/48 45/70/46 52/96/59
f 46/72/48 52/96/59 48/73/49
f 60/114/69 59/90/58 47/95/50
f 62/154/67 54/97/53 61/99/60
f 21/76/26 64/100/61 49/103/27
f 53/98/52 51/105/51 66/107/64
f 67/113/68 48/110/49 62/112/67
f 47/95/50 48/110/49 60/114/69
f 72/129/78 31/118/72 71/119/73
f 31/118/72 74/55/37 17/10/9
f 2/43/34 69/130/70 24/25/22
f 71/119/73 76/134/77 72/129/78
f 25/26/23 1/47/36 79/135/81
f 81/139/83 69/115/70 79/137/81
f 80/192/80 82/138/82 79/137/81
f 86/125/75 75/124/74 84/144/86
f 9/9/8 6/41/32 10/42/33
f 80/192/80 78/148/79 82/138/82
f 83/193/84 75/124/74 88/146/87
f 82/194/82 88/146/87 90/151/89
f 81/139/83 82/138/82 91/153/90
f 70/109/66 69/115/70 91/153/90
f 92/159/94 77/108/65 91/153/90
f 93/155/91 67/113/68 77/156/65
f 84/195/86 6/161/32 96/163/93
f 98/170/97 96/163/93 97/165/96
f 36/196/38 37/166/40 95/162/95
f 87/126/76 86/125/75 98/167/97
f 102/182/103 103/175/100 100/174/99
f 100/174/99 98/170/97 102/182/103
f 91/153/90 90/152/89 92/159/94
f 94/160/92 92/159/94 101/184/101
f 93/155/91 94/157/92 105/185/104
f 55/173/55 57/187/106 99/171/98
f 57/187/106 59/90/58 106/186/105
f 103/175/100 102/182/103 105/185/104
f 75/124/107 83/193/107 76/128/107
f 75/124/74 76/128/77 4/46/1
l 17 85
