# Blender v2.70 (sub 0) OBJ File: 'asteroidsLOD3.blend'
# www.blender.org
o asteroidLOD6_Cube.022
v -0.932770 0.689300 -0.767798
v -1.519926 0.100508 -0.317888
v -1.616159 0.397704 -0.233573
v -1.516657 0.537440 -0.405497
v -1.347401 0.677049 -0.564236
v -1.495097 0.624418 -0.240882
v -1.547193 0.408063 0.032853
v -1.460012 -0.221142 -0.339442
v -1.599696 0.147896 -0.078960
v -1.399354 -0.019324 -0.535262
v -1.497961 0.038514 0.138555
v -1.413324 -0.329858 -0.066804
v -1.299021 -0.147248 0.294276
v -1.108548 0.465367 -0.790555
v -1.444425 0.361669 0.223666
v -1.072793 0.286066 0.419722
v -0.775798 0.832170 -0.520089
v -1.301179 0.749262 -0.383493
v -0.920568 0.682345 0.262096
v -1.365733 0.638487 -0.014668
v -0.657681 0.692517 0.409014
v -0.303021 0.564774 0.930757
v -0.231295 0.904640 0.664716
v -0.433155 0.821062 -0.096231
v -0.094552 1.032300 0.030660
v 0.154285 0.597329 1.028800
v 0.122495 0.913168 0.726259
v 0.127947 1.063183 0.411720
v -0.187672 0.633424 -0.855214
v 0.181815 0.788845 -0.740677
v 0.658258 0.795659 -0.585279
v -0.963006 -0.123438 0.512820
v -0.752164 -0.075230 0.767632
v -0.474741 0.030127 1.039577
v -0.126147 0.181453 1.151570
v 0.505434 0.300810 0.893125
v 0.252025 -0.015408 1.050243
v 0.613647 -0.311986 0.694417
v 0.270092 -0.460205 0.826623
v 0.388630 0.681860 0.896368
v 0.787183 0.667947 0.562404
v 0.654564 0.877559 0.387975
v 1.060615 0.380963 0.554109
v 1.097643 0.621669 0.262998
v -0.318944 0.488177 -1.015346
v -0.792063 -0.208995 -0.842091
v -0.431301 0.154976 -1.079982
v -0.924296 -0.517830 -0.647776
v -0.685471 -0.716065 0.456170
v 1.123767 -0.091310 0.447924
v 0.861411 -0.235633 0.511267
v 1.396759 0.300451 0.415390
v 1.419722 -0.062453 0.370885
v 1.452977 0.428499 0.262357
v 1.143868 0.740728 -0.417489
v -0.090560 -0.136327 1.126537
v -0.371466 -0.256510 1.054968
v -0.442656 -0.590929 0.707268
v -0.020980 -0.560174 0.941771
v 1.612430 0.213845 0.243888
v 1.649621 0.341992 -0.040504
v 1.632308 -0.078516 0.224541
v 1.697610 0.061432 0.008086
v 1.495681 0.172606 -0.815993
v 1.583142 -0.505721 -0.325276
v 1.673101 0.255980 -0.481351
v 1.471945 0.474090 -0.510796
v 1.237737 0.449724 -0.831468
v 0.858098 0.378176 -0.873114
v -0.071048 0.427065 -1.047333
v 0.454655 0.523354 -0.961207
v 1.603016 -0.195865 -0.571967
v 1.255063 0.097926 -0.949407
v 1.207868 -0.594846 -0.576525
v 1.302103 -0.286027 -0.755601
v 1.268192 -0.723412 -0.325527
v 1.367444 -0.608182 -0.096194
v 1.457753 -0.335606 0.109115
v 1.311305 -0.364340 0.211741
v 0.707861 -0.559504 -0.656260
v 0.799788 -0.767778 -0.279938
v 0.793215 -0.322633 -0.840873
v 0.849757 -0.129350 -0.949155
v 0.484126 0.009086 -0.944344
v 0.048666 -0.065429 -0.905059
v 0.304159 -0.200490 -0.651312
v 0.328854 -0.628107 -0.622524
v 0.040985 -0.443282 -0.833030
v -0.399709 -0.160840 -1.020145
v -0.376781 -0.612802 -0.736826
v -0.552822 -0.831150 -0.397133
v -0.409621 -0.941801 -0.042716
v -0.573630 -0.866804 0.301836
v -0.081060 -0.838804 0.669379
v 0.150090 -0.976433 0.242643
v -0.105481 -1.030106 -0.010820
v -0.030225 -0.823284 -0.485323
v -1.181833 -0.535427 -0.225875
v 0.387113 -0.807409 -0.393336
v 0.588897 -0.757597 0.134216
v 0.992569 -0.687744 0.058332
v -0.672462 -0.044962 0.845759
vt 0.129082 0.749918
vt 0.142576 0.762172
vt 0.122053 0.762742
vt 0.103071 0.767721
vt 0.094414 0.754867
vt 0.120502 0.774888
vt 0.102134 0.720179
vt 0.148828 0.708477
vt 0.864661 0.721447
vt 0.856401 0.738599
vt 0.847262 0.723427
vt 0.860385 0.705301
vt 0.870842 0.708590
vt 0.095270 0.200059
vt 0.129024 0.206033
vt 0.117589 0.223862
vt 0.175090 0.413507
vt 0.190608 0.410259
vt 0.193880 0.433318
vt 0.833402 0.727130
vt 0.841320 0.746543
vt 0.827132 0.756431
vt 0.843422 0.705348
vt 0.852084 0.764391
vt 0.813773 0.698466
vt 0.122388 0.170680
vt 0.862065 0.692027
vt 0.473858 0.023795
vt 0.472105 0.010875
vt 0.485849 0.010190
vt 0.105655 0.233104
vt 0.091425 0.212090
vt 0.140058 0.163713
vt 0.152917 0.185834
vt 0.528862 0.094238
vt 0.517243 0.083667
vt 0.538002 0.076307
vt 0.757131 0.703931
vt 0.737384 0.694902
vt 0.754288 0.671858
vt 0.165544 0.233605
vt 0.175810 0.172338
vt 0.191810 0.152233
vt 0.221860 0.216650
vt 0.190290 0.223063
vt 0.811142 0.727702
vt 0.804241 0.751942
vt 0.783000 0.748820
vt 0.758492 0.741235
vt 0.740756 0.727199
vt 0.989174 0.715879
vt 0.989965 0.746652
vt 0.962040 0.744889
vt 0.939511 0.758037
vt 0.925455 0.738817
vt 0.958058 0.718282
vt 0.978015 0.701999
vt 0.995694 0.689605
vt 0.950697 0.682076
vt 0.993948 0.670295
vt 0.961012 0.667886
vt 0.926566 0.690365
vt 0.927209 0.666828
vt 0.225574 0.162866
vt 0.130823 0.676857
vt 0.419636 0.070489
vt 0.446743 0.106358
vt 0.432858 0.119054
vt 0.775959 0.746641
vt 0.167424 0.725672
vt 0.148969 0.412006
vt 0.137443 0.439538
vt 0.912200 0.723163
vt 0.903476 0.708364
vt 0.888506 0.698058
vt 0.904177 0.682317
vt 0.914090 0.634477
vt 0.975809 0.760646
vt 0.755700 0.756986
vt 0.742485 0.745510
vt 0.128666 0.404193
vt 0.115145 0.430780
vt 0.098621 0.406180
vt 0.083638 0.430887
vt 0.079955 0.407811
vt 0.886648 0.675778
vt 0.902794 0.669125
vt 0.883229 0.658034
vt 0.874328 0.689050
vt 0.871522 0.672707
vt 0.287524 0.210126
vt 0.287165 0.236492
vt 0.274397 0.228666
vt 0.257885 0.245332
vt 0.253956 0.212048
vt 0.232924 0.248762
vt 0.274175 0.256425
vt 0.206648 0.246021
vt 0.171978 0.252140
vt 0.156115 0.247082
vt 0.455893 0.119578
vt 0.449053 0.961438
vt 0.434022 0.981266
vt 0.420537 0.956268
vt 0.257881 0.265307
vt 0.395843 0.948687
vt 0.408917 0.923042
vt 0.429372 0.935375
vt 0.390580 0.926680
vt 0.052070 0.538773
vt 0.033382 0.542384
vt 0.038631 0.527022
vt 0.455353 0.944986
vt 0.018504 0.490015
vt 0.030947 0.503041
vt 0.025846 0.511909
vt 0.032885 0.477899
vt 0.401708 0.987120
vt 0.386088 0.984334
vt 0.476753 0.114894
vt 0.463509 0.105217
vt 0.480659 0.083870
vt 0.602094 0.533976
vt 0.615945 0.534062
vt 0.624170 0.560861
vt 0.602515 0.561137
vt 0.582841 0.556653
vt 0.578308 0.530613
vt 0.568082 0.554780
vt 0.540606 0.566678
vt 0.563591 0.578523
vt 0.541644 0.616162
vt 0.533508 0.590423
vt 0.649078 0.604206
vt 0.630032 0.599948
vt 0.642528 0.581333
vt 0.585563 0.591610
vt 0.667644 0.588692
vt 0.663198 0.565926
vt 0.610984 0.582066
vt 0.630406 0.629598
vt 0.658094 0.630017
vt 0.151424 0.680596
vt 0.672234 0.616311
vt 0.179561 0.666380
vt 0.182871 0.694058
vt 0.196858 0.717734
vt 0.136672 0.454884
vt 0.186711 0.454045
vt 0.157806 0.489950
vt 0.138760 0.479381
vt 0.098071 0.482900
vt 0.096892 0.450484
vt 0.120883 0.489434
vt 0.227161 0.790814
vt 0.226935 0.762478
vt 0.244908 0.757817
vt 0.205556 0.686401
vt 0.199033 0.660182
vt 0.168573 0.754483
vt 0.153432 0.770337
vt 0.627200 0.580684
vt 0.535933 0.056345
vt 0.514883 0.061861
vt 0.518956 0.042942
vt 0.131046 0.510101
vt 0.104421 0.517703
vt 0.075863 0.495754
vt 0.077278 0.523428
vt 0.055189 0.509966
vt 0.046264 0.470658
vt 0.054699 0.455932
vt 0.070475 0.442840
vt 0.868637 0.754661
vt 0.507408 0.108768
vt 0.489851 0.114825
vt 0.501855 0.093640
vt 0.768674 0.678038
vt 0.797277 0.695118
vt 0.693492 0.733743
vt 0.668326 0.720758
vt 0.703893 0.721182
vt 0.087294 0.738716
vt 0.147930 0.263035
vt 0.952447 0.773178
vt 0.416304 0.996146
vt 0.011243 0.504336
vt 0.450746 0.918992
vt 0.551069 0.536464
vt 0.573086 0.602672
vt 0.542560 0.013526
vt 0.529728 0.032658
vt 0.514070 0.012826
vt 0.878886 0.709148
vt 0.169159 0.143846
vt 0.800207 0.658479
vt 0.818751 0.675758
vn -0.711173 -0.201636 -0.673421
vn -0.827876 -0.448653 -0.336528
vn -0.921140 -0.174017 -0.348125
vn -0.980865 0.147191 -0.127293
vn -0.828242 0.325236 -0.456252
vn -0.982665 -0.151250 0.106937
vn -0.477859 0.128666 -0.868923
vn -0.395917 -0.308145 -0.865017
vn -0.851711 0.337138 0.401135
vn -0.712760 0.699362 0.052858
vn -0.372234 0.926420 -0.056276
vn -0.038209 0.980926 -0.190527
vn -0.228553 0.670614 -0.705679
vn -0.648549 -0.298959 0.699942
vn -0.834132 -0.206702 0.511338
vn -0.784783 -0.593463 0.178472
vn -0.645589 0.286874 0.707724
vn -0.473495 0.789544 0.390362
vn -0.313547 0.802850 0.507004
vn -0.594653 0.583605 -0.552934
vn -0.467483 0.792138 0.392315
vn -0.254372 0.964782 -0.066897
vn -0.380169 0.803583 0.457900
vn 0.074618 0.809381 0.582476
vn 0.061708 0.984436 0.164464
vn -0.418317 0.504440 0.755333
vn 0.119938 0.427045 0.896207
vn -0.046144 0.823267 -0.565752
vn -0.234504 0.960875 -0.147313
vn 0.237098 0.868160 -0.435926
vn -0.031343 0.850917 -0.524308
vn -0.535508 0.261513 0.803003
vn -0.640065 -0.190100 0.744407
vn -0.700430 -0.186773 0.688803
vn -0.523484 0.063814 0.849605
vn -0.084811 0.135624 0.987091
vn 0.426862 -0.154149 0.891049
vn 0.467696 -0.551805 0.690420
vn 0.578661 -0.445326 0.683218
vn 0.604663 0.043550 0.795251
vn 0.434614 0.498642 0.749931
vn 0.562334 0.494156 0.662954
vn 0.414197 0.874355 0.252785
vn 0.321787 0.217414 0.921506
vn 0.514420 0.772332 0.372600
vn -0.125156 -0.035066 -0.991485
vn -0.086184 0.497208 -0.863308
vn -0.683828 -0.073092 0.725944
vn -0.443922 -0.613056 -0.653462
vn -0.505814 -0.659017 0.556627
vn 0.478530 -0.400800 0.781243
vn 0.338267 -0.287271 0.896084
vn 0.423780 -0.303323 0.853450
vn 0.495346 0.260292 0.828761
vn 0.382946 0.895321 -0.227424
vn 0.067080 -0.227668 0.971404
vn -0.398450 -0.356731 0.844935
vn -0.454817 -0.584796 0.671651
vn 0.138524 -0.594165 0.792291
vn 0.812220 0.219886 0.540269
vn 0.572192 0.691305 0.441176
vn 0.839869 0.530839 0.113102
vn 0.778375 -0.296365 0.553392
vn 0.993896 -0.021943 0.107852
vn 0.916837 0.296945 -0.266762
vn 0.648030 0.706595 -0.284158
vn 0.269967 0.624775 -0.732627
vn 0.134800 0.410565 -0.901791
vn 0.681753 0.131046 -0.719718
vn 0.209174 0.407056 -0.889096
vn 0.066988 0.265633 -0.961730
vn 0.828089 -0.299936 -0.473556
vn 0.273446 -0.031648 -0.961364
vn 0.802576 -0.582415 -0.128849
vn 0.274941 -0.718925 -0.638386
vn 0.401807 -0.472610 -0.784326
vn 0.334056 -0.931394 -0.144444
vn 0.523392 -0.749809 0.404736
vn 0.424421 -0.587451 0.688986
vn 0.586291 -0.601215 0.542894
vn 0.120151 -0.978881 -0.165319
vn -0.033418 -0.655171 -0.754692
vn -0.138585 -0.503250 -0.852931
vn -0.032228 -0.274758 -0.960936
vn -0.011353 -0.373455 -0.927549
vn 0.248146 -0.326121 -0.912168
vn 0.154088 -0.439009 -0.885159
vn 0.317545 -0.396100 -0.861507
vn 0.156865 -0.529313 -0.833766
vn -0.066408 -0.322367 -0.944273
vn -0.099063 -0.665090 -0.740135
vn -0.265786 -0.894498 -0.359416
vn -0.401654 -0.872066 0.279550
vn -0.592181 -0.797327 -0.116520
vn -0.297922 -0.946989 -0.120060
vn 0.298563 -0.922819 0.243385
vn 0.071749 -0.810816 0.580859
vn -0.030305 -0.994507 -0.100162
vn 0.043947 -0.838710 -0.542772
vn 0.198798 -0.903500 -0.379620
vn 0.366070 -0.868679 0.333689
vn 0.261544 -0.842830 0.470290
s 1
f 10/1/1 8/2/2 2/3/3
f 3/4/4 4/5/5 10/1/1
f 9/6/6 3/4/4 2/3/3
f 10/1/1 14/7/7 46/8/8
f 3/9/4 9/10/6 7/11/9
f 8/2/2 9/6/6 2/3/3
f 7/11/9 6/12/10 3/9/4
f 6/12/10 4/13/5 3/9/4
f 18/14/11 17/15/12 1/16/13
f 13/17/14 11/18/15 12/19/16
f 15/20/17 11/21/15 13/22/14
f 7/11/9 9/10/6 11/21/15
f 20/23/18 6/12/10 7/11/9
f 12/24/16 11/21/15 9/10/6
f 15/20/17 20/23/18 7/11/9
f 19/25/19 20/23/18 15/20/17
f 19/26/19 17/15/12 18/14/11
f 18/27/11 6/12/10 20/23/18
f 4/28/5 6/29/10 18/30/11
f 1/16/13 14/31/7 5/32/20
f 21/33/21 24/34/22 19/26/19
f 17/15/12 19/26/19 24/34/22
f 23/35/23 27/36/24 28/37/25
f 22/38/26 26/39/27 27/40/24
f 24/34/22 29/41/28 17/15/12
f 25/42/29 28/43/25 31/44/30
f 30/45/31 29/41/28 24/34/22
f 16/46/32 13/22/14 32/47/33
f 16/46/32 32/47/33 33/48/34
f 34/49/35 35/50/36 22/38/26
f 22/38/26 35/50/36 26/39/27
f 26/51/27 35/52/36 37/53/37
f 37/53/37 39/54/38 38/55/39
f 26/51/27 36/56/40 40/57/41
f 27/58/24 26/51/27 40/57/41
f 40/57/41 36/56/40 41/59/42
f 28/60/25 27/58/24 42/61/43
f 40/57/41 41/59/42 42/61/43
f 41/59/42 43/62/44 44/63/45
f 42/61/43 41/59/42 44/63/45
f 30/45/31 25/42/29 31/44/30
f 28/43/25 42/64/43 31/44/30
f 1/16/13 17/15/12 29/41/28
f 14/7/7 47/65/46 46/8/8
f 1/66/13 45/67/47 47/68/46
f 16/46/32 33/48/34 102/69/48
f 8/2/2 10/1/1 48/70/49
f 48/70/49 10/1/1 46/8/8
f 32/71/33 13/17/14 49/72/50
f 38/55/39 51/73/51 36/56/40
f 41/59/42 51/73/51 43/62/44
f 51/73/51 41/59/42 36/56/40
f 50/74/52 53/75/53 52/76/54
f 44/63/45 43/62/44 52/76/54
f 10/1/1 4/5/5 14/7/7
f 42/61/43 44/63/45 55/77/55
f 37/53/37 35/52/36 56/78/56
f 34/49/35 57/79/57 56/80/56
f 33/81/34 32/71/33 49/72/50
f 33/81/34 58/82/58 57/83/57
f 39/54/38 37/53/37 56/78/56
f 57/83/57 59/84/59 56/85/56
f 58/82/58 59/84/59 57/83/57
f 60/86/60 54/87/61 52/76/54
f 53/75/53 60/86/60 52/76/54
f 60/86/60 61/88/62 54/87/61
f 44/63/45 54/87/61 55/77/55
f 60/86/60 53/75/53 62/89/63
f 60/86/60 63/90/64 61/88/62
f 61/91/62 66/92/65 67/93/66
f 67/93/66 68/94/67 55/95/55
f 55/95/55 68/94/67 69/96/68
f 67/93/66 66/92/65 64/97/69
f 30/45/31 71/98/70 70/99/71
f 45/100/47 29/41/28 70/99/71
f 30/45/31 31/44/30 71/98/70
f 69/96/68 71/98/70 31/44/30
f 47/68/46 45/67/47 70/101/71
f 64/102/69 66/103/65 72/104/72
f 68/94/67 64/97/69 73/105/73
f 65/106/74 74/107/75 75/108/76
f 74/107/75 65/106/74 76/109/77
f 76/110/77 65/111/74 77/112/78
f 75/108/76 73/113/73 64/102/69
f 53/114/53 79/115/79 78/116/80
f 53/114/53 50/117/52 79/115/79
f 65/106/74 63/118/64 62/119/63
f 78/120/80 77/121/78 65/122/74
f 74/123/75 76/124/77 81/125/81
f 74/123/75 80/126/82 82/127/83
f 75/128/76 82/127/83 83/129/84
f 69/96/68 68/94/67 73/105/73
f 69/130/68 83/129/84 84/131/85
f 70/132/71 71/133/70 84/131/85
f 85/134/86 84/135/85 86/136/87
f 84/131/85 83/129/84 86/137/87
f 83/129/84 82/127/83 86/137/87
f 82/127/83 80/126/82 86/137/87
f 85/134/86 86/136/87 88/138/88
f 88/138/88 86/136/87 87/139/89
f 86/137/87 80/126/82 87/140/89
f 70/141/71 85/134/86 47/142/46
f 46/8/8 47/65/46 89/143/90
f 85/134/86 89/144/90 47/142/46
f 88/145/88 90/146/91 89/143/90
f 46/8/8 89/143/90 90/146/91
f 48/70/49 90/146/91 91/147/92
f 58/82/58 49/72/50 93/148/93
f 98/149/94 91/150/92 92/151/95
f 95/152/96 94/153/97 96/154/98
f 94/153/97 93/148/93 96/154/98
f 93/148/93 92/151/95 96/154/98
f 59/84/59 58/82/58 94/153/97
f 97/155/99 96/156/98 92/157/95
f 91/147/92 90/146/91 97/158/99
f 90/146/91 88/145/88 97/158/99
f 88/145/88 87/159/89 97/158/99
f 8/2/2 48/70/49 98/160/94
f 12/161/16 8/2/2 98/160/94
f 13/17/14 12/19/16 49/72/50
f 12/19/16 98/149/94 49/72/50
f 99/162/100 87/140/89 80/126/82
f 97/163/99 87/164/89 99/165/100
f 96/154/98 97/166/99 99/167/100
f 99/167/100 100/168/101 95/152/96
f 99/167/100 81/169/81 100/168/101
f 100/168/101 81/169/81 101/170/102
f 101/170/102 81/169/81 76/110/77
f 79/115/79 101/170/102 77/112/78
f 51/171/51 101/170/102 79/115/79
f 51/171/51 38/172/39 100/168/101
f 72/104/72 66/103/65 63/118/64
f 95/152/96 39/173/38 59/84/59
f 102/69/48 33/48/34 57/79/57
f 5/32/20 18/14/11 1/16/13
f 16/46/32 15/20/17 13/22/14
f 15/20/17 7/11/9 11/21/15
f 8/174/2 12/24/16 9/10/6
f 16/46/32 19/25/19 15/20/17
f 20/23/18 19/25/19 18/27/11
f 5/175/20 4/176/5 18/177/11
f 23/178/23 21/179/21 22/38/26
f 23/180/23 22/181/26 27/182/24
f 25/42/29 30/45/31 24/34/22
f 36/56/40 26/51/27 37/53/37
f 36/56/40 37/53/37 38/55/39
f 27/58/24 40/57/41 42/61/43
f 45/100/47 1/16/13 29/41/28
f 4/5/5 5/183/20 14/7/7
f 14/31/7 1/16/13 47/184/46
f 95/152/96 100/168/101 38/172/39
f 43/62/44 50/74/52 52/76/54
f 54/87/61 44/63/45 52/76/54
f 31/44/30 42/64/43 55/95/55
f 35/50/36 34/49/35 56/80/56
f 58/82/58 33/81/34 49/72/50
f 59/185/59 39/54/38 56/78/56
f 63/90/64 60/86/60 62/89/63
f 61/186/62 63/118/64 66/103/65
f 54/87/61 61/88/62 55/77/55
f 31/44/30 55/95/55 69/96/68
f 68/94/67 67/93/66 64/97/69
f 29/41/28 30/45/31 70/99/71
f 72/104/72 65/106/74 75/108/76
f 72/104/72 75/108/76 64/102/69
f 62/187/63 53/114/53 78/116/80
f 80/126/82 74/123/75 81/125/81
f 75/128/76 74/123/75 82/127/83
f 73/113/73 75/108/76 83/188/84
f 83/129/84 69/130/68 73/189/73
f 71/133/70 69/130/68 84/131/85
f 85/190/86 70/132/71 84/131/85
f 85/134/86 88/138/88 89/144/90
f 48/70/49 46/8/8 90/146/91
f 94/153/97 58/82/58 93/148/93
f 91/150/92 97/166/99 92/151/95
f 81/191/81 99/192/100 80/193/82
f 95/152/96 96/154/98 99/167/100
f 77/112/78 101/170/102 76/110/77
f 78/116/80 79/115/79 77/112/78
f 50/74/52 51/73/51 79/194/79
f 101/170/102 51/171/51 100/168/101
f 28/43/25 25/42/29 23/195/23
f 23/178/23 25/196/29 24/197/22
f 55/95/55 61/91/62 67/93/66
f 16/46/32 22/38/26 21/179/21
f 19/25/19 16/46/32 21/179/21
f 34/49/35 102/69/48 57/79/57
f 16/46/32 102/69/48 34/49/35
f 51/73/51 50/74/52 43/62/44
f 98/160/94 48/70/49 91/147/92
f 98/149/94 92/151/95 93/148/93
f 49/72/50 98/149/94 93/148/93
f 65/106/74 72/104/72 63/118/64
f 78/116/80 65/111/74 62/187/63
f 2/3/3 3/4/4 10/1/1
f 94/153/97 95/152/96 59/84/59
f 39/173/38 95/152/96 38/172/39
f 21/179/21 23/178/23 24/197/22
f 22/38/26 16/46/32 34/49/35
