# Blender v2.70 (sub 0) OBJ File: 'asteroidsLOD3.blend'
# www.blender.org
o asteroidLOD8_Cube.005
v 0.131987 -0.196723 1.347076
v -0.109099 0.600749 -1.188600
v 0.166240 0.878276 -0.869669
v 0.808259 0.852715 0.562170
v 0.561187 0.774421 0.929214
v 0.863410 0.878894 0.075707
v 0.174288 0.201359 -1.277243
v -0.525769 0.772196 -1.004536
v -0.360309 1.120562 -0.675317
v -0.806551 1.163901 -0.522711
v -1.065550 0.672760 -0.752074
v -0.445680 1.038653 0.734506
v -0.661477 0.891695 0.680716
v -0.766665 0.371830 0.889406
v -1.114745 -0.209050 0.722569
v -1.376492 -0.171122 0.088355
v -1.362704 0.126779 -0.356874
v -1.186443 0.746706 -0.487748
v -0.999143 1.097971 -0.296496
v -0.667755 1.220496 0.341455
v -0.791542 1.292215 0.001429
v -0.559086 1.395615 -0.097881
v -0.181336 1.344809 -0.159030
v -0.422129 1.357770 0.306943
v 0.414327 1.107893 0.386011
v -0.045430 1.212765 0.606397
v 0.037675 1.288208 0.147307
v 0.306332 0.434391 1.227619
v -0.375332 0.022859 1.179313
v -0.863839 -0.504899 0.944303
v -0.360325 -0.843758 0.937935
v 0.666239 0.279052 1.176568
v 0.461149 -0.176833 1.333012
v 1.057192 -0.347067 1.020372
v 1.014594 0.540818 0.791532
v 1.262886 0.098925 0.786955
v 1.149949 0.635047 0.178767
v -0.174348 0.310140 -1.221037
v -0.704991 0.545450 -0.974549
v -1.036649 0.144263 -0.860896
v -0.814661 -0.398968 -0.957338
v -0.364107 -0.557650 -1.154130
v -0.161602 -0.167029 -1.249005
v -1.249333 0.191597 -0.659474
v -1.158640 -0.443244 -0.694418
v -1.346969 -0.409188 -0.293819
v 0.322252 -1.012275 0.858934
v 0.739315 -0.535096 1.177557
v 1.041965 -0.768537 0.793581
v 0.777183 -1.068886 0.426464
v 1.329180 -0.339759 0.430056
v 1.272846 -0.369905 0.775661
v 1.131431 -0.801725 0.383907
v -1.258435 -0.559992 0.321644
v -0.763436 -0.939322 0.450353
v -0.985722 -0.939057 -0.057406
v -0.533247 -0.917152 -0.875112
v -1.000901 -0.862014 -0.548026
v 0.170938 -0.224258 -1.303220
v -0.036732 -0.695427 -1.134499
v -0.757603 -0.688456 -0.941496
v -0.139606 -1.157749 0.427095
v 0.093719 -1.237608 -0.004744
v -0.529086 -1.198301 0.001262
v -0.275908 -1.211494 -0.280948
v -0.813393 -1.090876 -0.261879
v -0.496297 -1.090697 -0.627921
v 0.300960 -1.213807 -0.262750
v -0.159867 -1.125103 -0.677644
v 0.344761 0.611916 -1.103003
v 1.031796 -0.733474 -0.110268
v 0.783109 0.714031 -0.697804
v 0.969181 0.773279 -0.212146
v 1.290679 0.160686 0.102344
v 0.862731 -1.018869 0.159763
v 0.455460 -1.103834 -0.493995
v 0.377917 -0.721580 -0.986088
v 0.721499 -0.822387 -0.630650
v 1.058761 -0.271359 -0.614818
v 1.119596 0.267165 -0.510586
v 0.883606 0.307638 -0.896583
v 0.579840 -0.268996 -1.094660
vt 0.155878 0.096310
vt 0.192869 0.052635
vt 0.191466 0.123493
vt 0.206440 0.060960
vt 0.211588 0.097761
vt 0.216073 0.031698
vt 0.348808 0.846216
vt 0.369765 0.841140
vt 0.358737 0.871002
vt 0.142877 0.853184
vt 0.125024 0.871351
vt 0.127013 0.837902
vt 0.108622 0.818160
vt 0.124262 0.799573
vt 0.400383 0.908789
vt 0.377238 0.895200
vt 0.378349 0.880192
vt 0.440794 0.913160
vt 0.424128 0.920902
vt 0.181335 0.035521
vt 0.206095 0.020878
vt 0.466326 0.851149
vt 0.450029 0.878246
vt 0.419211 0.867466
vt 0.409577 0.896435
vt 0.383513 0.855618
vt 0.230220 0.007007
vt 0.235727 0.017864
vt 0.109579 0.893125
vt 0.063139 0.858362
vt 0.092575 0.841775
vt 0.232312 0.149756
vt 0.872015 0.013888
vt 0.910897 0.013194
vt 0.893012 0.045356
vt 0.024976 0.841761
vt 0.056942 0.834787
vt 0.009557 0.814989
vt 0.026318 0.796825
vt 0.084644 0.808884
vt 0.059904 0.787059
vt 0.108193 0.783232
vt 0.859875 0.851583
vt 0.865258 0.867597
vt 0.824335 0.871428
vt 0.828317 0.855028
vt 0.796332 0.877507
vt 0.844937 0.925489
vt 0.815248 0.902562
vt 0.798083 0.909828
vt 0.309896 0.062697
vt 0.300216 0.076865
vt 0.286413 0.036313
vt 0.821916 0.941914
vt 0.802384 0.955625
vt 0.787502 0.924641
vt 0.308794 0.108981
vt 0.285281 0.107906
vt 0.830318 0.052007
vt 0.844494 0.036602
vt 0.829513 0.079838
vt 0.868464 0.084420
vt 0.836623 0.114452
vt 0.008065 0.781773
vt 0.868907 0.123603
vt 0.245353 0.128052
vt 0.278422 0.136297
vt 0.032828 0.776943
vt 0.044684 0.763068
vt 0.851920 0.135125
vt 0.321587 0.241047
vt 0.351478 0.243383
vt 0.349264 0.263033
vt 0.957708 0.019968
vt 0.934475 0.047570
vt 0.967690 0.056615
vt 0.988122 0.035634
vt 0.832514 0.985688
vt 0.856015 0.940830
vt 0.873510 0.951533
vt 0.839541 0.966619
vt 0.430996 0.394900
vt 0.384692 0.421842
vt 0.400986 0.400167
vt 0.438818 0.833185
vt 0.888668 0.865831
vt 0.901174 0.888365
vt 0.880163 0.892612
vt 0.899767 0.922894
vt 0.878253 0.920373
vt 0.910571 0.083001
vt 0.921085 0.112395
vt 0.947918 0.082123
vt 0.949853 0.105062
vt 0.971316 0.076252
vt 0.990007 0.072761
vt 0.974116 0.105049
vt 0.875428 0.968005
vt 0.850510 0.984734
vt 0.961921 0.123507
vt 0.923490 0.131345
vt 0.895909 0.962581
vt 0.486595 0.832538
vt 0.461413 0.821564
vt 0.436282 0.792838
vt 0.389516 0.787216
vt 0.393698 0.768366
vt 0.408650 0.780455
vt 0.083174 0.763998
vt 0.374697 0.269266
vt 0.368273 0.281912
vt 0.345626 0.294460
vt 0.876784 0.136555
vt 0.392809 0.321436
vt 0.381157 0.330510
vt 0.358262 0.364298
vt 0.397838 0.360186
vt 0.366984 0.386080
vt 0.356781 0.332485
vt 0.925951 0.144670
vt 0.315166 0.326414
vt 0.262370 0.288436
vt 0.286541 0.283397
vt 0.281983 0.324115
vt 0.388819 0.394004
vt 0.357920 0.413798
vt 0.335728 0.404191
vt 0.325520 0.368488
vt 0.307419 0.396386
vt 0.284079 0.353585
vt 0.279270 0.385386
vt 0.294004 0.245486
vt 0.316765 0.258824
vt 0.170441 0.137116
vt 0.022097 0.859049
vt 0.782159 0.883681
vt 0.462570 0.786195
vt 0.257169 0.317406
vt 0.502955 0.749429
vt 0.535632 0.754331
vt 0.492567 0.767631
vt 0.332716 0.393629
vt 0.364386 0.816375
vt 0.262289 0.021049
vn 0.028962 0.412549 0.910459
vn -0.296457 0.605090 0.738853
vn -0.356945 0.092257 0.929533
vn -0.692434 0.432112 0.577746
vn -0.643452 0.321787 0.694540
vn -0.632008 0.647359 0.425947
vn 0.122105 0.839198 0.529893
vn 0.328806 0.943785 0.033479
vn -0.129734 0.941343 0.311411
vn 0.418836 0.893033 0.164434
vn 0.545305 0.782098 0.301553
vn 0.498123 0.864956 -0.060640
vn -0.814020 0.580767 0.006378
vn -0.644734 0.741722 0.184820
vn -0.160344 0.978454 -0.129826
vn -0.645955 0.333048 -0.686850
vn -0.895474 0.426588 -0.126865
vn -0.068453 0.433943 -0.898312
vn -0.272256 0.478683 -0.834681
vn 0.019349 0.826930 -0.561907
vn -0.397351 0.781579 -0.480789
vn 0.213324 0.950835 -0.224433
vn 0.313944 0.672658 0.670034
vn -0.540666 -0.334788 0.771722
vn -0.259133 -0.647908 0.716269
vn 0.211829 -0.048433 0.976074
vn 0.422864 0.292184 0.857784
vn 0.315378 -0.405683 0.857845
vn 0.623035 -0.123417 0.772362
vn 0.671773 0.526292 0.521256
vn 0.860744 0.218848 0.459548
vn 0.840968 0.540849 0.015229
vn -0.270882 0.096652 -0.957732
vn -0.432112 0.138279 -0.891140
vn -0.493820 -0.077425 -0.866085
vn -0.561113 0.086245 -0.823206
vn -0.828669 0.079409 -0.554033
vn -0.985015 0.167241 -0.041963
vn -0.779931 -0.288156 -0.555528
vn -0.921781 -0.336558 -0.192450
vn -0.960570 0.161016 0.226630
vn -0.138035 -0.138493 0.980682
vn 0.070559 -0.811518 0.580004
vn 0.606952 -0.636006 0.476516
vn 0.371807 -0.911161 0.177465
vn -0.819941 0.096103 0.564287
vn -0.852138 -0.434462 0.291604
vn 0.887600 -0.213874 0.407880
vn 0.983062 -0.179052 -0.038667
vn 0.806879 -0.590564 -0.011200
vn -0.482040 -0.788995 0.380840
vn -0.694205 -0.715842 0.074801
vn -0.490432 -0.407208 -0.770470
vn -0.276009 -0.692648 -0.666341
vn -0.731437 -0.600635 -0.322794
vn 0.231971 0.789209 -0.568590
vn 0.176824 0.134526 -0.974975
vn 0.161901 -0.165868 -0.972747
vn -0.291269 -0.043428 -0.955626
vn 0.062868 -0.527238 -0.847377
vn -0.257485 -0.269662 -0.927885
vn -0.111820 -0.947050 0.300943
vn 0.039674 -0.997559 0.057192
vn -0.256172 -0.960570 0.108005
vn -0.081606 -0.989074 -0.122654
vn -0.481491 -0.870785 -0.099277
vn -0.267647 -0.882595 -0.386486
vn 0.013672 -0.881527 -0.471908
vn 0.189032 -0.973785 -0.126408
vn 0.332499 0.502731 -0.797906
vn 0.600879 0.648732 -0.466933
vn 0.680197 0.692526 -0.240181
vn 0.983581 0.117191 -0.137150
vn 0.550310 -0.825251 -0.126865
vn 0.819483 -0.500015 -0.279977
vn 0.378826 -0.833155 -0.402814
vn 0.367718 -0.555895 -0.745445
vn 0.627979 -0.588427 -0.509232
vn 0.837092 -0.196509 -0.510514
vn 0.894436 0.182775 -0.408063
vn 0.727744 0.147160 -0.669851
vn 0.551286 -0.206000 -0.808466
s 1
f 28/1/1 12/2/2 29/3/3
f 12/2/2 13/4/4 14/5/5
f 20/6/6 13/4/4 12/2/2
f 26/7/7 27/8/8 24/9/9
f 27/10/8 26/11/7 25/12/10
f 25/12/10 4/13/11 6/14/12
f 19/15/13 21/16/14 22/17/15
f 11/18/16 18/19/17 19/15/13
f 12/2/2 26/20/7 24/21/9
f 2/22/18 8/23/19 9/24/20
f 10/25/21 22/17/15 23/26/22
f 9/24/20 8/23/19 10/25/21
f 27/8/8 23/26/22 24/9/9
f 22/17/15 24/9/9 23/26/22
f 22/27/15 21/28/14 20/6/6
f 12/29/2 28/30/1 5/31/23
f 12/2/2 14/5/5 29/3/3
f 30/32/24 29/3/3 14/5/5
f 29/33/3 30/34/24 31/35/25
f 33/36/26 32/37/27 28/30/1
f 33/36/26 48/38/28 34/39/29
f 5/31/23 28/30/1 32/37/27
f 35/40/30 4/13/11 5/31/23
f 32/37/27 35/40/30 5/31/23
f 35/40/30 32/37/27 36/41/31
f 37/42/32 6/14/12 4/13/11
f 4/13/11 35/40/30 37/42/32
f 8/23/19 11/18/16 10/25/21
f 2/43/18 38/44/33 39/45/34
f 8/46/19 39/45/34 11/47/16
f 39/45/34 38/44/33 41/48/35
f 39/45/34 40/49/36 44/50/37
f 44/51/37 17/52/38 18/53/17
f 45/54/39 44/50/37 40/49/36
f 44/50/37 45/54/39 46/55/40
f 17/56/38 44/50/37 46/55/40
f 17/52/38 46/57/40 16/58/41
f 33/59/26 1/60/42 48/61/28
f 32/37/27 33/36/26 34/39/29
f 31/35/25 47/62/43 48/61/28
f 48/61/28 47/62/43 49/63/44
f 34/39/29 48/38/28 49/64/44
f 49/63/44 47/62/43 50/65/45
f 15/66/46 16/58/41 54/67/47
f 36/41/31 34/39/29 52/68/48
f 51/69/49 36/41/31 52/68/48
f 34/39/29 49/64/44 52/68/48
f 50/65/45 53/70/50 49/63/44
f 46/57/40 54/67/47 16/58/41
f 52/71/48 49/72/44 53/73/50
f 30/32/24 15/66/46 54/67/47
f 30/34/24 54/74/47 55/75/51
f 55/75/51 54/74/47 56/76/52
f 31/35/25 30/34/24 55/75/51
f 54/74/47 46/77/40 56/76/52
f 45/54/39 56/78/52 46/55/40
f 41/48/35 61/79/53 45/54/39
f 61/79/53 57/80/54 58/81/55
f 56/82/52 45/83/39 58/84/55
f 9/24/20 23/26/22 3/85/56
f 7/86/57 38/44/33 2/43/18
f 38/44/33 7/86/57 59/87/58
f 43/88/59 59/87/58 60/89/60
f 57/80/54 42/90/61 60/89/60
f 42/90/61 57/80/54 61/79/53
f 45/54/39 61/79/53 58/81/55
f 41/48/35 42/90/61 61/79/53
f 47/62/43 31/35/25 62/91/62
f 55/75/51 62/91/62 31/35/25
f 47/62/43 62/91/62 63/92/63
f 62/91/62 55/75/51 64/93/64
f 62/91/62 64/93/64 65/94/65
f 56/76/52 66/95/66 64/93/64
f 55/75/51 56/76/52 64/93/64
f 56/76/52 58/96/55 66/95/66
f 64/93/64 66/95/66 67/97/67
f 67/98/67 66/99/66 58/81/55
f 69/100/68 68/101/69 63/92/63
f 67/97/67 69/100/68 65/94/65
f 67/98/67 57/80/54 69/102/68
f 60/89/60 69/102/68 57/80/54
f 7/103/57 2/22/18 70/104/70
f 2/22/18 3/85/56 70/104/70
f 72/105/71 70/104/70 3/85/56
f 23/26/22 72/105/71 3/85/56
f 6/106/12 37/107/32 73/108/72
f 36/41/31 74/109/73 37/42/32
f 53/73/50 50/110/45 75/111/74
f 71/112/75 53/73/50 75/111/74
f 63/92/63 68/101/69 75/113/74
f 68/114/69 76/115/76 75/111/74
f 77/116/77 69/117/68 60/118/60
f 77/116/77 76/115/76 69/117/68
f 78/119/78 76/115/76 77/116/77
f 76/120/76 68/101/69 69/100/68
f 71/112/75 78/119/78 79/121/79
f 53/73/50 71/112/75 79/121/79
f 37/122/32 74/123/73 80/124/80
f 73/125/72 80/126/80 81/127/81
f 82/128/82 7/129/57 81/130/81
f 82/128/82 77/116/77 60/118/60
f 82/128/82 79/121/79 78/119/78
f 82/128/82 81/130/81 80/124/80
f 7/129/57 70/131/70 81/130/81
f 36/132/31 51/133/49 74/123/73
f 24/21/9 20/6/6 12/2/2
f 28/1/1 29/3/3 1/134/42
f 10/25/21 19/15/13 22/17/15
f 10/25/21 11/18/16 19/15/13
f 3/85/56 2/22/18 9/24/20
f 9/24/20 10/25/21 23/26/22
f 24/21/9 22/27/15 20/6/6
f 15/66/46 30/32/24 14/5/5
f 1/60/42 29/33/3 31/35/25
f 1/135/42 33/36/26 28/30/1
f 8/46/19 2/43/18 39/45/34
f 11/47/16 39/45/34 44/50/37
f 11/47/16 44/50/37 18/136/17
f 41/48/35 45/54/39 40/49/36
f 1/60/42 31/35/25 48/61/28
f 51/133/49 52/71/48 53/73/50
f 23/26/22 27/8/8 73/108/72
f 43/88/59 38/44/33 59/87/58
f 42/90/61 43/88/59 60/89/60
f 50/65/45 47/62/43 63/92/63
f 63/92/63 62/91/62 65/94/65
f 65/94/65 64/93/64 67/97/67
f 57/80/54 67/98/67 58/81/55
f 65/94/65 69/100/68 63/92/63
f 4/13/11 25/12/10 26/11/7
f 50/65/45 63/92/63 75/113/74
f 38/44/33 43/88/59 42/90/61
f 70/104/70 72/105/71 81/137/81
f 73/138/72 37/122/32 80/124/80
f 72/139/71 73/140/72 81/141/81
f 78/119/78 71/112/75 75/111/74
f 59/142/58 82/128/82 60/118/60
f 77/116/77 82/128/82 78/119/78
f 79/121/79 82/128/82 80/124/80
f 59/142/58 7/129/57 82/128/82
f 25/143/10 6/106/12 73/108/72
f 36/41/31 37/42/32 35/40/30
f 32/37/27 34/39/29 36/41/31
f 51/133/49 79/121/79 80/124/80
f 14/5/5 13/4/4 18/53/17
f 15/66/46 14/5/5 17/52/38
f 20/6/6 19/144/13 18/53/17
f 21/28/14 19/144/13 20/6/6
f 26/11/7 12/29/2 5/31/23
f 40/49/36 39/45/34 41/48/35
f 51/133/49 53/73/50 79/121/79
f 72/105/71 23/26/22 73/108/72
f 5/31/23 4/13/11 26/11/7
f 41/48/35 38/44/33 42/90/61
f 76/115/76 78/119/78 75/111/74
f 27/8/8 25/143/10 73/108/72
f 74/123/73 51/133/49 80/124/80
f 17/52/38 14/5/5 18/53/17
f 16/58/41 15/66/46 17/52/38
f 13/4/4 20/6/6 18/53/17
