# Blender v2.70 (sub 0) OBJ File: 'asteroidsLOD3.blend'
# www.blender.org
o asteroidLOD3_Cube.011
v -0.953293 0.701457 0.084053
v 0.611008 0.920079 0.169781
v -1.184844 0.196841 0.727871
v 0.523889 0.309085 1.087230
v -1.278793 -0.120436 0.756369
v 0.468608 -0.139298 1.123407
v 0.564517 0.657731 0.859870
v -1.102482 0.475764 0.555191
v -0.296249 0.857602 0.178740
v -0.524777 0.211431 1.003056
v -0.530033 -0.227356 1.061536
v -0.414394 0.651765 0.741009
v -1.306336 -0.486028 0.625575
v 0.407452 -0.633026 0.909589
v -0.578000 -0.561713 0.849597
v -1.259022 -0.626097 0.336093
v 0.392264 -0.839950 0.647532
v -0.501346 -0.731413 0.489078
v -1.165968 -0.671375 -0.074453
v 0.445763 -0.927479 0.247639
v -0.523355 -0.838728 0.029706
v -1.110712 -0.579966 -0.416763
v 0.500670 -0.893474 -0.237308
v -0.448724 -0.784388 -0.321901
v -0.927863 0.543892 -0.482075
v 0.663630 0.710808 -0.599628
v -0.352081 0.642120 -0.581730
v -0.932694 0.213518 -0.880228
v 0.661798 0.295409 -1.011722
v -0.293697 0.276111 -1.026974
v -1.069297 -0.433853 -0.701880
v 0.539984 -0.666592 -0.699832
v -0.380476 -0.572207 -0.724617
v -0.938791 -0.192259 -0.914011
v 0.605861 -0.305018 -1.034023
v -0.309127 -0.189673 -1.021293
v -1.537532 0.161862 -0.551626
v -1.598584 0.337017 -0.034412
v -1.687135 -0.012243 0.412760
v -1.668382 -0.311463 0.350561
v -1.440978 -0.474124 -0.216764
v -1.518026 -0.227468 -0.620168
v -1.743037 0.087219 -0.271917
v -1.744729 -0.065224 -0.301103
v 1.410757 0.640626 0.047599
v 1.265516 0.026745 0.863781
v 1.557461 -0.338312 0.494401
v 1.233972 0.497918 0.675991
v 1.236883 -0.473620 0.774768
v 1.148137 -0.738907 0.466307
v 1.175329 -0.834871 -0.011378
v 1.450017 0.548209 -0.464999
v 1.421051 0.143437 -0.867052
v 1.320248 -0.706747 -0.529239
v 1.350909 -0.290088 -0.897593
v 1.530360 -0.663699 0.039455
v 1.647930 0.179383 0.402008
v 1.696710 0.348130 -0.162310
v 1.765101 -0.104584 -0.519259
v 1.644115 -0.548819 -0.389326
v 1.801545 -0.185990 -0.047645
v -1.793241 0.019242 0.073150
v -1.786379 -0.151990 0.039396
vt 0.322414 0.957822
vt 0.284389 0.963856
vt 0.275118 0.944033
vt 0.308117 0.926918
vt 0.258980 0.929708
vt 0.912566 0.880750
vt 0.935417 0.892954
vt 0.931225 0.946274
vt 0.820042 0.559765
vt 0.814627 0.512968
vt 0.847260 0.502839
vt 0.846495 0.553464
vt 0.875255 0.505668
vt 0.316819 0.993371
vt 0.283777 0.995589
vt 0.108078 0.337671
vt 0.092526 0.387994
vt 0.075193 0.386794
vt 0.114152 0.274157
vt 0.086698 0.338409
vt 0.054227 0.383588
vt 0.060711 0.333323
vt 0.067450 0.274280
vt 0.028479 0.378842
vt 0.030419 0.335568
vt 0.010366 0.377554
vt 0.041239 0.271626
vt 0.010787 0.332720
vt 0.941636 0.851001
vt 0.284037 0.539004
vt 0.245860 0.583961
vt 0.225252 0.575055
vt 0.321948 0.569155
vt 0.278870 0.619175
vt 0.349886 0.594604
vt 0.252774 0.645894
vt 0.309253 0.641622
vt 0.961738 0.861103
vt 0.965973 0.900114
vt 0.961421 0.954440
vt 0.994302 0.894900
vt 0.997296 0.948964
vt 0.277540 0.668791
vt 0.240040 0.687590
vt 0.225354 0.622977
vt 0.241312 0.990009
vt 0.237893 0.953785
vt 0.237785 0.920691
vt 0.063235 0.412817
vt 0.925722 0.842701
vt 0.911681 0.831291
vt 0.926458 0.816823
vt 0.951075 0.820258
vt 0.972883 0.812015
vt 0.212415 0.667665
vt 0.222553 0.689502
vt 0.217487 0.991912
vt 0.224239 0.972441
vt 0.215921 0.966744
vt 0.952540 0.796261
vt 0.961043 0.793504
vt 0.025063 0.398959
vt 0.048741 0.423177
vt 0.986313 0.990504
vt 0.960696 0.993152
vt 0.926415 0.986798
vt 0.435923 0.014351
vt 0.408941 0.058786
vt 0.385287 0.043242
vt 0.355983 0.530756
vt 0.331928 0.512088
vt 0.059288 0.227458
vt 0.084655 0.223051
vt 0.071413 0.204901
vt 0.860513 0.603860
vt 0.828409 0.233171
vt 0.811419 0.218152
vt 0.824501 0.185050
vt 0.827356 0.603465
vt 0.804229 0.634080
vt 0.013095 0.270389
vt 0.028199 0.226727
vt 0.899048 0.565166
vt 0.888651 0.611618
vt 0.874389 0.554608
vt 0.874714 0.637069
vt 0.841379 0.639001
vt 0.817818 0.660252
vt 0.361092 0.513342
vt 0.731931 0.576171
vt 0.707934 0.594349
vt 0.683283 0.581881
vt 0.737691 0.549317
vt 0.701420 0.561883
vt 0.720594 0.517577
vt 0.698733 0.498563
vt 0.700525 0.530770
vt 0.675131 0.549823
vt 0.853267 0.667921
vt 0.655746 0.527107
vt 0.682224 0.514615
vt 0.223489 0.943942
vt 0.938856 0.785619
vt 0.290819 0.905367
vt 0.906086 0.934270
vt 0.088517 0.274224
vt 0.263338 0.523585
vt 0.985451 0.855068
vt 0.209836 0.986848
vt 0.406673 0.241715
vt 0.427288 0.265565
vt 0.368575 0.251052
vt 0.382037 0.556879
vt 0.846273 0.154389
vt 0.870403 0.147880
vt 0.840957 0.190029
vt 0.787795 0.584394
vn -0.207709 0.780541 0.589557
vn -0.486679 0.715262 0.501511
vn -0.507828 0.423505 0.750145
vn -0.235481 0.338054 0.911161
vn -0.522416 -0.025330 0.852290
vn -0.148808 -0.935331 -0.320902
vn -0.122715 -0.753655 -0.645680
vn 0.031892 -0.810297 -0.585101
vn 0.148289 0.749413 0.645222
vn 0.136296 0.330088 0.934019
vn -0.193487 -0.207923 0.958800
vn -0.151891 0.987487 0.041749
vn -0.354503 0.934935 0.013276
vn -0.489059 -0.608966 0.624439
vn 0.135838 -0.186560 0.972991
vn -0.190771 -0.713157 0.674520
vn -0.402631 -0.900449 0.164495
vn -0.191443 -0.935270 0.297586
vn 0.036500 -0.902280 0.429548
vn -0.368450 -0.923521 -0.106204
vn -0.190039 -0.981689 0.011750
vn -0.350078 -0.851253 -0.390820
vn 0.060244 -0.995666 0.070467
vn -0.308603 -0.705313 -0.638173
vn 0.129643 0.989105 0.069338
vn 0.096530 0.860469 -0.500229
vn -0.141148 0.869716 -0.472915
vn 0.111026 0.407636 -0.906339
vn -0.331187 0.843471 -0.422895
vn -0.103427 0.419904 -0.901639
vn -0.294015 -0.257576 -0.920408
vn -0.099338 -0.299722 -0.948820
vn 0.066500 -0.349834 -0.934446
vn -0.346110 0.427686 -0.834986
vn -0.629658 0.466140 -0.621448
vn -0.653951 0.756432 0.011597
vn -0.803217 0.236152 0.546831
vn -0.799066 -0.492691 0.344523
vn -0.606342 -0.765130 -0.216468
vn -0.657216 -0.360607 -0.661824
vn -0.886837 0.343913 -0.308481
vn -0.960936 0.241371 0.135380
vn -0.936766 -0.349773 -0.010743
vn -0.907651 -0.199835 -0.369060
vn 0.514756 0.312723 -0.798242
vn 0.431745 -0.336283 -0.836940
vn 0.339976 -0.823481 -0.454115
vn 0.262276 -0.963866 0.046419
vn 0.550249 0.727653 -0.409497
vn 0.568499 0.811579 0.134556
vn 0.414075 -0.847377 0.332347
vn 0.481460 -0.458296 0.747063
vn 0.776208 -0.332804 0.535447
vn 0.550615 0.044618 0.833552
vn 0.606861 -0.759606 0.233802
vn 0.500565 0.638325 0.584735
vn 0.060793 -0.967895 -0.243812
vn 0.089724 -0.602710 0.792871
vn 0.852992 0.289163 0.434431
vn 0.876675 0.478652 -0.047670
vn 0.904538 -0.013184 -0.426160
vn 0.732994 -0.587390 -0.342998
vn 0.983154 -0.136479 0.121494
s 1
f 12/1/1 8/2/2 3/3/3
f 10/4/4 3/3/3 5/5/5
f 24/6/6 33/7/7 32/8/8
f 7/9/9 12/10/1 10/11/4
f 4/12/10 10/11/4 11/13/11
f 9/14/12 1/15/13 8/2/2
f 11/16/11 5/17/5 13/18/14
f 6/19/15 11/16/11 15/20/16
f 15/20/16 13/18/14 16/21/17
f 15/20/16 18/22/18 17/23/19
f 18/22/18 16/21/17 19/24/20
f 17/23/19 18/22/18 21/25/21
f 21/25/21 19/24/20 22/26/22
f 20/27/23 21/25/21 24/28/6
f 31/29/24 33/7/7 24/6/6
f 2/30/25 9/31/12 12/32/1
f 2/30/25 26/33/26 27/34/27
f 27/34/27 26/33/26 29/35/28
f 25/36/29 27/34/27 30/37/30
f 31/29/24 34/38/31 36/39/32
f 33/7/7 36/39/32 35/40/33
f 30/41/30 36/39/32 34/38/31
f 29/42/28 35/40/33 36/39/32
f 9/31/12 27/34/27 25/36/29
f 25/36/29 28/43/34 37/44/35
f 1/45/13 25/36/29 37/44/35
f 1/15/13 38/46/36 8/2/2
f 3/3/3 8/2/2 38/46/36
f 5/5/5 3/3/3 39/47/37
f 13/48/14 5/5/5 39/47/37
f 16/21/17 13/18/14 40/49/38
f 19/24/20 16/21/17 40/49/38
f 22/50/22 19/51/20 41/52/39
f 31/29/24 22/50/22 41/52/39
f 34/38/31 31/29/24 42/53/40
f 34/38/31 42/53/40 37/54/35
f 38/55/36 37/44/35 43/56/41
f 38/46/36 43/57/41 62/58/42
f 63/59/43 62/58/42 43/57/41
f 42/53/40 44/60/44 43/61/41
f 42/53/40 41/52/39 44/60/44
f 41/62/39 40/49/38 63/63/43
f 35/40/33 29/42/28 53/64/45
f 35/40/33 55/65/46 54/66/47
f 32/67/8 54/68/47 51/69/48
f 29/35/28 26/33/26 52/70/49
f 2/30/25 45/71/50 52/70/49
f 17/23/19 50/72/51 49/73/52
f 50/72/51 47/74/53 49/73/52
f 7/9/9 4/12/10 46/75/54
f 51/76/48 56/77/55 47/78/53
f 7/9/9 48/79/56 45/80/50
f 23/81/57 51/82/48 50/72/51
f 17/23/19 20/27/23 50/72/51
f 14/83/58 49/84/52 46/75/54
f 4/12/10 6/85/15 46/75/54
f 49/84/52 47/86/53 57/87/59
f 46/75/54 57/87/59 48/79/56
f 48/79/56 57/87/59 58/88/60
f 52/70/49 45/71/50 58/89/60
f 53/90/45 52/91/49 58/92/60
f 55/93/46 53/90/45 59/94/61
f 54/95/47 55/93/46 59/94/61
f 51/96/48 54/95/47 60/97/62
f 60/97/62 59/94/61 61/98/63
f 59/94/61 58/92/60 61/98/63
f 58/88/60 57/87/59 61/99/63
f 57/87/59 47/86/53 61/99/63
f 47/100/53 56/101/55 61/98/63
f 60/97/62 61/98/63 56/101/55
f 40/102/38 39/47/37 62/58/42
f 44/60/44 41/52/39 63/103/43
f 39/47/37 38/46/36 62/58/42
f 10/4/4 12/1/1 3/3/3
f 11/104/11 10/4/4 5/5/5
f 23/105/57 24/6/6 32/8/8
f 4/12/10 7/9/9 10/11/4
f 6/85/15 4/12/10 11/13/11
f 12/1/1 9/14/12 8/2/2
f 15/20/16 11/16/11 13/18/14
f 14/106/58 6/19/15 15/20/16
f 18/22/18 15/20/16 16/21/17
f 14/106/58 15/20/16 17/23/19
f 21/25/21 18/22/18 19/24/20
f 20/27/23 17/23/19 21/25/21
f 24/28/6 21/25/21 22/26/22
f 23/81/57 20/27/23 24/28/6
f 22/50/22 31/29/24 24/6/6
f 7/107/9 2/30/25 12/32/1
f 9/31/12 2/30/25 27/34/27
f 30/37/30 27/34/27 29/35/28
f 28/43/34 25/36/29 30/37/30
f 33/7/7 31/29/24 36/39/32
f 32/8/8 33/7/7 35/40/33
f 28/108/34 30/41/30 34/38/31
f 30/41/30 29/42/28 36/39/32
f 1/45/13 9/31/12 25/36/29
f 38/55/36 1/45/13 37/44/35
f 39/47/37 3/3/3 38/46/36
f 40/102/38 13/48/14 39/47/37
f 41/62/39 19/24/20 40/49/38
f 42/53/40 31/29/24 41/52/39
f 28/108/34 34/38/31 37/54/35
f 44/109/44 63/59/43 43/57/41
f 37/54/35 42/53/40 43/61/41
f 55/65/46 35/40/33 53/64/45
f 32/8/8 35/40/33 54/66/47
f 23/110/57 32/111/8 51/112/48
f 53/113/45 29/35/28 52/70/49
f 26/33/26 2/30/25 52/70/49
f 14/106/58 17/23/19 49/73/52
f 48/79/56 7/9/9 46/75/54
f 50/114/51 51/115/48 47/116/53
f 2/117/25 7/9/9 45/80/50
f 20/27/23 23/81/57 50/72/51
f 6/85/15 14/83/58 46/75/54
f 46/75/54 49/84/52 57/87/59
f 45/80/50 48/79/56 58/88/60
f 59/94/61 53/90/45 58/92/60
f 60/97/62 54/95/47 59/94/61
f 56/101/55 51/96/48 60/97/62
f 63/59/43 40/102/38 62/58/42
