# Blender v2.70 (sub 0) OBJ File: 'asteroidsLOD4.blend'
# www.blender.org
o asteroid7Collider_Cube.003
v -0.517859 0.443183 -0.921689
v 1.766546 -0.024652 -0.300009
v 1.714613 0.303065 -0.428990
v 1.420761 0.488999 -0.635484
v 1.675692 0.017230 0.509357
v 1.795825 0.403884 -0.079450
v 1.742161 0.387642 0.180635
v 1.830276 0.119092 0.302921
v 1.903496 0.021932 0.005764
v 1.682287 0.528328 -0.268464
v 1.540517 0.630604 0.065211
v 1.189141 0.616762 0.448806
v 1.546421 0.255754 0.566876
v 0.471615 0.217655 0.998530
v 1.063977 0.820602 -0.487627
v 0.327002 0.487626 0.813757
v -1.448192 0.706155 -0.356378
v -1.162612 0.631950 0.433284
v -0.181832 0.591331 -0.818214
v -1.062247 0.451263 0.732520
v -0.540732 0.468523 0.787591
v -0.163848 0.802541 -0.423912
v -0.335950 0.746851 0.349545
v 0.178062 0.660903 0.636684
v 1.031601 -0.276815 0.800890
v 0.541109 -0.407414 1.018224
v 0.250215 -0.265259 1.075170
v -1.331038 0.094380 0.718906
v -1.148192 0.140602 0.803143
v -0.801433 0.195174 0.863200
v -1.403935 0.472985 0.501470
v -1.702444 0.238734 0.339898
v -1.379556 -0.062253 0.645509
v -1.607495 0.004034 0.342151
v -1.709371 0.602615 -0.301434
v -1.654652 0.529654 0.120123
v -1.831295 0.421614 -0.312000
v -1.797216 0.283564 0.027568
v -1.745744 0.148229 -0.360530
v -1.745106 0.049495 -0.023485
v -0.156866 -0.416250 0.967359
v -0.992976 -0.180865 0.782789
v -0.945345 -0.482272 0.650706
v -1.166728 -0.484879 0.533619
v -1.264181 0.492635 -0.765930
v -1.091982 0.651774 -0.674464
v -1.433873 0.598115 -0.610245
v -1.721150 0.492109 -0.479938
v -1.471780 -0.252030 0.211226
v -0.983349 0.028495 -1.040210
v -1.085490 -0.287898 -0.882614
v 1.074210 0.622927 -0.692735
v 1.028588 0.862994 -0.229925
v 1.485821 -0.221009 -0.572932
v 1.342927 0.236960 -0.755690
v -1.404187 -0.349974 -0.388908
v 0.703601 0.184623 -0.918860
v -0.238580 0.310407 -1.033097
v -0.621766 -0.253999 -1.040996
v 0.044018 -0.520096 -0.917940
v 1.155633 -0.098323 -0.865652
v 1.436654 0.008387 -0.705214
v 1.731022 -0.171661 0.175616
v 1.422163 -0.535025 -0.243886
v 1.041121 -0.694183 -0.395958
v 1.108913 -0.358909 -0.692305
v 0.704264 -0.528988 -0.780914
v 0.489363 -0.821368 -0.370608
v -0.169475 -0.673175 -0.742359
v -0.883312 -0.483037 -0.909838
v -0.963967 -0.702128 -0.577346
v -1.146239 -0.640516 -0.037276
v -0.926965 -0.811796 -0.343327
v 1.380371 -0.343757 0.527262
v 1.159824 -0.541546 0.536569
v 1.278793 -0.653453 0.207982
v 0.556863 -0.862645 0.646810
v 0.897822 -0.873977 0.139676
v 0.212700 -0.676458 0.829536
v -0.372683 -0.917111 -0.177232
v -0.499030 -0.893321 0.114389
v -0.826693 -0.717707 0.461459
v -0.370982 -0.734650 0.687803
vn 0.815638 0.187872 -0.547166
vn 0.515702 0.480667 -0.709189
vn 0.702017 0.665242 -0.254097
vn 0.902036 0.050081 0.428724
vn 0.740806 0.568804 0.357250
vn 0.524644 0.376263 0.763604
vn 0.236000 0.886196 -0.398633
vn 0.698996 -0.183752 0.691092
vn 0.979553 -0.199622 -0.024049
vn 0.882748 0.468825 -0.030274
vn 0.847011 -0.298074 -0.440077
vn 0.077792 0.662343 0.745109
vn 0.022736 0.862026 0.506302
vn -0.095035 0.601886 0.792871
vn -0.547075 0.020997 0.836787
vn -0.346202 0.069826 0.935545
vn -0.263436 0.573901 0.775353
vn -0.152562 0.209174 0.965880
vn -0.861965 0.074190 0.501450
vn -0.816675 -0.434675 0.379498
vn -0.636158 -0.337352 0.693838
vn -0.641041 0.697409 0.320414
vn -0.617756 0.784082 -0.059328
vn -0.969298 0.170110 -0.177435
vn -0.850307 -0.342204 -0.399792
vn -0.893368 -0.444807 0.063326
vn 0.249825 -0.325694 0.911863
vn 0.158788 0.344951 0.925077
vn -0.019837 -0.122318 0.992279
vn -0.335521 -0.315500 0.887600
vn -0.528703 0.585894 0.614124
vn -0.234596 0.896908 0.374798
vn -0.350719 -0.540574 0.764672
vn -0.390576 0.682180 -0.618061
vn -0.269478 0.956359 -0.112827
vn -0.130436 0.819971 -0.557329
vn -0.343577 0.434065 -0.832759
vn -0.715842 0.324686 -0.618152
vn -0.761650 -0.622669 0.179174
vn -0.569353 -0.647389 0.506607
vn 0.183813 0.982055 0.041810
vn 0.510544 0.830470 0.222755
vn 0.642170 -0.468337 -0.606800
vn 0.630970 -0.113132 -0.767479
vn 0.436598 0.184027 -0.880612
vn 0.216712 0.556993 -0.801721
vn -0.000427 0.736808 -0.676046
vn 0.031495 0.302988 -0.952452
vn -0.103916 0.556902 -0.824030
vn 0.349315 -0.202490 -0.914853
vn 0.158147 0.178472 -0.971129
vn 0.417554 -0.600513 -0.681906
vn 0.227149 -0.639088 -0.734794
vn 0.362499 -0.828578 -0.426588
vn 0.113773 -0.927885 -0.355022
vn 0.000275 -0.839656 -0.543107
vn 0.092227 -0.536302 -0.838954
vn -0.310160 -0.585955 -0.748589
vn -0.337565 0.040895 -0.940397
vn -0.034547 -0.236518 -0.971007
vn -0.626637 -0.775384 0.077670
vn -0.747612 -0.605365 -0.273080
vn -0.381024 -0.908780 -0.169897
vn 0.456648 -0.256142 0.851955
vn 0.603900 -0.535722 0.590136
vn -0.411634 -0.794305 -0.446760
vn 0.511216 -0.634449 0.579730
vn 0.594867 -0.777673 0.203253
vn 0.182073 -0.863460 0.470382
vn 0.633900 -0.731315 -0.251595
vn 0.299570 -0.953795 0.022401
vn -0.045747 -0.655049 0.754173
vn -0.049379 -0.985107 -0.164586
vn -0.170843 -0.974212 0.147252
vn -0.365123 -0.846919 0.386486
vn -0.976440 0.057649 0.207892
vn -0.602252 -0.379315 -0.702384
vn -0.052767 0.981567 -0.183599
vn -0.203192 -0.781762 0.589496
vn 0.292520 0.787835 0.541917
vn -0.191290 -0.374737 0.907163
vn -0.066744 0.968230 0.240883
vn 0.771661 -0.588519 0.241127
s 1
f 3//1 4//2 10//3
f 8//4 7//5 13//6
f 10//3 4//2 15//7
f 5//8 8//4 13//6
f 8//4 9//9 6//10
f 9//9 2//11 3//1
f 3//1 10//3 6//10
f 16//12 24//13 21//14
f 28//15 29//16 20//17
f 29//16 30//18 20//17
f 20//17 30//18 21//14
f 32//19 34//20 33//21
f 36//22 35//23 37//24
f 37//24 39//25 40//26
f 26//27 14//28 27//29
f 28//15 33//21 42//30
f 36//22 31//31 18//32
f 43//33 42//30 33//21
f 47//34 17//35 46//36
f 45//37 47//34 46//36
f 35//23 17//35 47//34
f 37//24 35//23 48//38
f 34//20 49//39 44//40
f 53//41 11//42 10//3
f 15//7 53//41 10//3
f 2//11 54//43 62//44
f 4//2 3//1 55//45
f 4//2 52//46 15//7
f 55//45 52//46 4//2
f 19//47 58//48 1//49
f 55//45 61//50 57//51
f 62//44 54//43 61//50
f 55//45 3//1 62//44
f 3//1 2//11 62//44
f 55//45 62//44 61//50
f 66//52 61//50 54//43
f 61//50 66//52 67//53
f 65//54 66//52 54//43
f 67//53 68//55 69//56
f 60//57 69//56 70//58
f 50//59 59//60 70//58
f 49//39 72//61 44//40
f 72//61 56//62 73//63
f 25//64 74//65 5//8
f 56//62 71//66 73//63
f 74//65 25//64 75//67
f 76//68 75//67 77//69
f 26//27 77//69 75//67
f 64//70 76//68 78//71
f 68//55 65//54 78//71
f 79//72 77//69 26//27
f 80//73 81//74 73//63
f 73//63 81//74 82//75
f 44//40 72//61 82//75
f 7//5 8//4 6//10
f 6//10 9//9 3//1
f 18//32 31//31 20//17
f 28//15 32//19 33//21
f 38//76 36//22 37//24
f 38//76 37//24 40//26
f 29//16 28//15 42//30
f 44//40 43//33 33//21
f 48//38 35//23 47//34
f 47//34 45//37 48//38
f 33//21 34//20 44//40
f 48//38 50//59 51//77
f 59//60 50//59 58//48
f 64//70 65//54 54//43
f 60//57 67//53 69//56
f 59//60 60//57 70//58
f 51//77 50//59 70//58
f 78//71 76//68 77//69
f 25//64 26//27 75//67
f 65//54 64//70 78//71
f 70//58 69//56 71//66
f 72//61 73//63 82//75
f 22//78 53//41 15//7
f 43//33 44//40 83//79
f 71//66 51//77 70//58
f 14//28 13//6 12//80
f 13//6 7//5 11//42
f 79//72 41//81 83//79
f 68//55 80//73 69//56
f 41//81 43//33 83//79
f 80//73 73//63 69//56
f 20//17 21//14 24//13
f 18//32 23//82 17//35
f 26//27 13//6 14//28
f 23//82 22//78 17//35
f 9//9 64//70 2//11
f 36//22 18//32 17//35
f 20//17 31//31 28//15
f 39//25 48//38 51//77
f 39//25 37//24 48//38
f 40//26 39//25 56//62
f 23//82 53//41 22//78
f 9//9 63//83 64//70
f 12//80 11//42 53//41
f 48//38 45//37 50//59
f 13//6 25//64 5//8
f 63//83 76//68 64//70
f 28//15 31//31 32//19
f 41//81 42//30 43//33
f 23//82 24//13 53//41
f 45//37 1//49 50//59
f 78//71 80//73 68//55
f 81//74 80//73 77//69
f 83//79 82//75 81//74
f 25//64 13//6 26//27
f 46//36 1//49 45//37
f 27//29 29//16 41//81
f 78//71 77//69 80//73
f 83//79 44//40 82//75
f 19//47 52//46 58//48
f 29//16 42//30 41//81
f 46//36 19//47 1//49
f 83//79 81//74 77//69
f 11//42 6//10 10//3
f 16//12 14//28 12//80
f 52//46 57//51 58//48
f 46//36 15//7 19//47
f 57//51 61//50 58//48
f 15//7 52//46 19//47
f 11//42 7//5 6//10
f 27//29 41//81 26//27
f 41//81 79//72 26//27
f 49//39 34//20 40//26
f 55//45 57//51 52//46
f 34//20 32//19 40//26
f 35//23 36//22 17//35
f 32//19 38//76 40//26
f 67//53 60//57 61//50
f 16//12 21//14 14//28
f 21//14 30//18 14//28
f 20//17 24//13 18//32
f 30//18 27//29 14//28
f 17//35 22//78 46//36
f 79//72 83//79 77//69
f 30//18 29//16 27//29
f 24//13 23//82 18//32
f 2//11 64//70 54//43
f 22//78 15//7 46//36
f 51//77 56//62 39//25
f 13//6 11//42 12//80
f 8//4 63//83 9//9
f 56//62 51//77 71//66
f 63//83 74//65 76//68
f 69//56 73//63 71//66
f 58//48 61//50 59//60
f 24//13 16//12 12//80
f 74//65 75//67 76//68
f 65//54 67//53 66//52
f 32//19 36//22 38//76
f 8//4 5//8 63//83
f 61//50 60//57 59//60
f 65//54 68//55 67//53
f 32//19 31//31 36//22
f 5//8 74//65 63//83
f 1//49 58//48 50//59
f 53//41 24//13 12//80
f 72//61 40//26 56//62
f 49//39 40//26 72//61
