# Blender v2.70 (sub 0) OBJ File: 'Buildings9.blend'
# www.blender.org
o buildingSquareTop1_Cube.016
v 0.242399 0.468579 0.242399
v -0.986354 -0.482554 0.986354
v -0.977851 -0.500000 0.977851
v 0.986354 -0.482554 0.986354
v 0.977851 -0.500000 0.977851
v 0.977851 -0.500000 -0.977851
v 0.986353 -0.482554 -0.986355
v 0.242398 0.468579 -0.242399
v -0.986357 -0.482554 -0.986351
v 0.000000 0.568482 0.000000
v -0.242398 0.468579 0.242399
v -0.242399 0.468579 -0.242398
v -0.977853 -0.500000 -0.977848
v -0.977851 -0.500000 0.977851
v -0.977851 -0.500000 0.977851
v -0.986354 -0.482554 0.986354
v 0.977851 -0.500000 0.977851
v 0.977851 -0.500000 0.977851
v 0.986354 -0.482554 0.986354
v 0.977851 -0.500000 -0.977851
v 0.977851 -0.500000 -0.977851
v 0.242399 0.468579 0.242399
v -0.242399 0.468579 -0.242398
v -0.986357 -0.482554 -0.986351
v -0.977853 -0.500000 -0.977848
v -0.977853 -0.500000 -0.977848
v 0.000000 0.568482 0.000000
v 0.000000 0.568482 0.000000
v 0.000000 0.568482 0.000000
v -0.242398 0.468579 0.242399
v 0.242398 0.468579 -0.242399
v 0.986353 -0.482554 -0.986355
vt 0.011180 0.823848
vt 0.177723 0.823848
vt 0.177723 0.990392
vt 0.011180 0.990392
vt 0.571756 0.965079
vt 0.550876 0.942494
vt 0.592637 0.942494
vt 0.655427 0.835525
vt 0.656721 0.838478
vt 0.486792 0.838478
vt 0.487504 0.835534
vn -0.000000 -1.000000 0.000000
vn -0.381051 0.924554 0.000001
vn 0.000000 -0.438120 0.898917
vn 0.000001 0.616097 0.787670
vn -0.898917 -0.438118 0.000001
vn -0.787670 0.616098 0.000002
vn -0.000002 0.616098 -0.787670
vn 0.000000 0.924554 0.381050
vn -0.000001 0.924554 -0.381051
vn -0.000001 -0.438115 -0.898919
vn 0.898937 -0.438078 0.000000
vn 0.381051 0.924554 -0.000000
vn 0.787670 0.616098 -0.000001
vn 0.000000 -0.438121 0.898916
vn 0.000000 0.616098 0.787669
vn -0.898914 -0.438126 0.000001
vn -0.787669 0.616099 0.000001
vn -0.000001 0.616098 -0.787670
vn -0.000002 -0.438155 -0.898899
vn 0.898913 -0.438128 -0.000000
vn 0.787670 0.616098 -0.000000
s off
f 26/1/1 21/2/1 18/3/1
f 15/4/1 26/1/1 18/3/1
f 10/5/2 12/6/2 11/7/2
f 5/8/3 4/9/3 2/10/3
f 1/7/4 30/6/4 2/10/4
f 14/8/5 16/9/5 9/10/5
f 11/7/6 12/6/6 9/10/6
f 23/7/7 8/6/7 7/10/7
f 27/5/8 30/6/8 1/7/8
f 28/5/9 8/6/9 23/7/9
f 20/11/10 25/8/10 24/9/10
f 17/11/11 6/8/11 32/9/11
f 29/5/12 22/6/12 31/7/12
f 31/7/13 22/6/13 19/10/13
f 3/11/14 5/8/14 2/10/14
f 4/9/15 1/7/15 2/10/15
f 13/11/16 14/8/16 9/10/16
f 16/9/17 11/7/17 9/10/17
f 24/9/18 23/7/18 7/10/18
f 7/10/19 20/11/19 24/9/19
f 19/10/20 17/11/20 32/9/20
f 32/9/21 31/7/21 19/10/21
