# Blender v2.70 (sub 0) OBJ File: 'Missile2.blend'
# www.blender.org
o missileCollider_MESH_Circle.001
v 0.262168 0.150897 0.947997
v 0.000403 0.302492 0.947997
v -0.261766 0.151595 0.947997
v -0.262169 -0.150898 0.947997
v -0.000404 -0.302494 0.947997
v 0.261765 -0.151597 0.947997
v -0.000000 -0.000001 1.533017
v 0.698044 -0.404257 -1.734088
v -0.699118 -0.402394 -1.734089
v 0.001076 0.806653 -1.734088
vn -0.987007 0.001315 0.160674
vn 0.866079 0.498493 0.037569
vn -0.001332 -0.999293 0.037568
vn -0.494643 -0.854115 0.160674
vn 0.987007 -0.001316 0.160674
vn 0.494643 0.854115 0.160675
vn 0.912673 -0.001217 0.408688
vn 0.455283 -0.791007 0.408688
vn -0.457391 -0.789790 0.408688
vn -0.912673 0.001216 0.408688
vn -0.455283 0.791007 0.408688
vn 0.457390 0.789790 0.408689
vn 0.492364 -0.855431 0.160674
vn -0.492363 0.855431 0.160675
vn -0.864747 0.500800 0.037568
vn 0.000000 0.000001 -1.000000
s off
f 4//1 3//1 9//1
f 10//2 1//2 8//2
f 8//3 5//3 9//3
f 5//4 4//4 9//4
f 1//5 6//5 8//5
f 2//6 1//6 10//6
f 6//7 1//7 7//7
f 5//8 6//8 7//8
f 4//9 5//9 7//9
f 3//10 4//10 7//10
f 2//11 3//11 7//11
f 1//12 2//12 7//12
f 6//13 5//13 8//13
f 3//14 2//14 10//14
f 9//15 3//15 10//15
f 10//16 8//16 9//16
