# Blender v2.70 (sub 0) OBJ File: 'Missile2.blend'
# www.blender.org
o missile_MESH_Circle
v 0.081775 0.196179 0.909487
v -0.080897 0.196543 0.909487
v -0.196180 0.081774 0.909487
v -0.196544 -0.080897 0.909486
v -0.081775 -0.196181 0.909486
v 0.080896 -0.196545 0.909487
v 0.196179 -0.081776 0.909487
v 0.196543 0.080895 0.909487
v 0.028041 0.067270 1.360231
v -0.027740 0.067395 1.360231
v -0.067272 0.028040 1.360231
v -0.067397 -0.027741 1.360231
v -0.028042 -0.067272 1.360231
v 0.027739 -0.067397 1.360231
v 0.067271 -0.028042 1.360231
v 0.067396 0.027739 1.360231
v -0.000000 -0.000001 1.391302
v 0.134946 0.323737 -0.175575
v -0.133496 0.324338 -0.175575
v -0.323737 0.134946 -0.175575
v -0.324338 -0.133496 -0.175575
v -0.134946 -0.323737 -0.175575
v 0.133495 -0.324338 -0.175575
v 0.323737 -0.134946 -0.175575
v 0.324338 0.133495 -0.175575
v 0.102969 0.247024 0.017081
v 0.247482 0.101862 0.017081
v 0.247024 -0.102969 0.017081
v 0.101862 -0.247483 0.017081
v -0.102969 -0.247025 0.017081
v -0.247483 -0.101863 0.017081
v -0.247024 0.102969 0.017081
v -0.101863 0.247482 0.017081
v 0.038978 0.067512 -0.598298
v -0.038978 0.067512 -0.598298
v -0.077957 -0.000000 -0.598298
v -0.038978 -0.067512 -0.598298
v 0.038978 -0.067512 -0.598298
v 0.077957 -0.000000 -0.598298
v 0.069264 0.119969 -0.037690
v -0.069264 0.119969 -0.037690
v -0.138529 -0.000000 -0.037690
v -0.069264 -0.119970 -0.037690
v 0.069264 -0.119970 -0.037690
v 0.138529 -0.000000 -0.037690
v 0.175113 -0.146110 -0.826301
v 0.214091 -0.078597 -0.826301
v 0.475640 -0.288349 -1.079795
v 0.487538 -0.267741 -1.079795
v 0.561925 -0.337162 -1.609443
v 0.572954 -0.318059 -1.609443
v 0.012944 0.006856 -1.183261
v 0.000061 -0.015459 -1.183261
v 0.095554 -0.082814 -1.208667
v 0.119497 -0.041344 -1.208667
v 0.277376 -0.147422 -1.464993
v 0.266360 -0.166503 -1.464993
v 0.038978 0.224707 -0.826301
v -0.038978 0.224707 -0.826301
v 0.011898 0.556091 -1.079795
v -0.011898 0.556091 -1.079795
v 0.011029 0.655223 -1.609442
v -0.011029 0.655223 -1.609442
v 0.023943 0.124160 -1.208667
v -0.023943 0.124160 -1.208667
v -0.011016 0.313926 -1.464993
v 0.011016 0.313926 -1.464993
v -0.214091 -0.078598 -0.826301
v -0.175113 -0.146110 -0.826301
v -0.487537 -0.267742 -1.079796
v -0.475639 -0.288350 -1.079796
v -0.572953 -0.318060 -1.609443
v -0.561924 -0.337163 -1.609443
v -0.119496 -0.041344 -1.208667
v -0.095553 -0.082815 -1.208667
v -0.266359 -0.166503 -1.464994
v -0.277376 -0.147423 -1.464994
v -0.012899 0.006680 -1.183261
v 0.000035 -0.000641 -1.234386
v -0.133496 0.324338 -0.175575
v 0.134946 0.323737 -0.175575
v -0.323737 0.134946 -0.175575
v -0.324338 -0.133496 -0.175575
v -0.134946 -0.323737 -0.175575
v 0.133495 -0.324338 -0.175575
v 0.323737 -0.134946 -0.175575
v 0.324338 0.133495 -0.175575
v -0.069264 0.119969 -0.037690
v 0.069264 0.119969 -0.037690
v -0.138529 -0.000000 -0.037690
v -0.069264 -0.119970 -0.037690
v 0.069264 -0.119970 -0.037690
v 0.138529 -0.000000 -0.037690
vt 0.359795 0.480268
vt 0.259318 0.608375
vt 0.242549 0.597302
vt 0.224134 0.589501
vt 0.270096 0.437752
vt 0.204570 0.585171
vt 0.184358 0.584545
vt 0.171596 0.423575
vt 0.164034 0.587906
vt 0.144704 0.595537
vt 0.062043 0.440376
vt 0.285721 0.639640
vt 0.273911 0.622543
vt 0.401317 0.512646
vt 0.951225 0.675524
vt 0.921868 0.679417
vt 0.931371 0.638442
vt 0.970741 0.653249
vt 0.970741 0.623635
vt 0.951225 0.601360
vt 0.921868 0.597467
vt 0.897221 0.613885
vt 0.897221 0.662999
vt 0.889502 0.634408
vt 0.443775 0.169140
vt 0.514652 0.208200
vt 0.367645 0.137780
vt 0.316052 0.455458
vt 0.221952 0.427061
vt 0.287479 0.115017
vt 0.204590 0.101995
vt 0.121230 0.100486
vt 0.042643 0.111970
vt 0.118862 0.427719
vt 0.578595 0.253948
vt 0.631842 0.304641
vt 0.440684 0.553711
vt 0.480810 0.100062
vt 0.396842 0.063675
vt 0.307928 0.036711
vt 0.214368 0.020315
vt 0.116059 0.017557
vt 0.014801 0.037005
vt 0.629705 0.200618
vt 0.688653 0.266549
vt 0.559010 0.145563
vt 0.707623 0.043533
vt 0.911697 0.062933
vt 0.904245 0.112741
vt 0.703429 0.071562
vt 0.891494 0.161461
vt 0.696253 0.098980
vt 0.873590 0.208533
vt 0.686178 0.125469
vt 0.850739 0.253413
vt 0.673319 0.150725
vt 0.823207 0.295583
vt 0.708786 0.015216
vt 0.913764 0.012614
vt 0.915235 0.323749
vt 0.849393 0.403292
vt 0.825905 0.383564
vt 0.735527 0.518411
vt 0.728887 0.512647
vt 0.727726 0.696738
vt 0.720426 0.696430
vt 0.901351 0.564927
vt 0.890983 0.551228
vt 0.930393 0.535923
vt 0.824829 0.631233
vt 0.491668 0.036301
vt 0.829372 0.636515
vt 0.731983 0.703009
vt 0.494318 0.026144
vt 0.550740 0.561528
vt 0.590418 0.440828
vt 0.674370 0.364664
vt 0.677215 0.322009
vt 0.894790 0.305967
vt 0.647148 0.783598
vt 0.486303 0.766442
vt 0.486667 0.757663
vt 0.342058 0.872027
vt 0.337727 0.866129
vt 0.453890 0.907018
vt 0.557482 0.908969
vt 0.553117 0.925493
vt 0.452594 0.913853
vt 0.339817 0.879270
vt 0.337712 0.649638
vt 0.456244 0.605300
vt 0.648257 0.752948
vt 0.568056 0.623076
vt 0.118307 0.756286
vt 0.265551 0.823276
vt 0.262439 0.831493
vt 0.435732 0.768534
vt 0.437984 0.775497
vt 0.343991 0.694009
vt 0.340608 0.700090
vt 0.242902 0.665645
vt 0.440141 0.762366
vt 0.369762 0.980951
vt 0.243299 0.985678
vt 0.107588 0.785028
vt 0.142785 0.933574
vt 0.020234 0.722596
vt 0.750812 0.784633
vt 0.594851 0.930338
vt 0.591428 0.938279
vt 0.214418 0.633812
vt 0.220097 0.627375
vt 0.204299 0.619151
vt 0.609008 0.941163
vt 0.934083 0.543153
vt 0.946724 0.532122
vt 0.657825 0.174456
vt 0.486905 0.045646
vt 0.603240 0.598355
vt 0.751537 0.757524
vt 0.010993 0.748099
vt 0.727651 0.518079
vt 0.481630 0.760080
vt 0.267981 0.830787
vt 0.252202 0.651311
vt 0.101910 0.945767
vt 0.829813 0.991601
vt 0.841237 0.899305
vt 0.888181 0.883855
vt 0.989161 0.896171
vt 0.905901 0.837720
vt 0.992523 0.797996
vt 0.881372 0.794816
vt 0.934673 0.718605
vt 0.741528 0.948528
vt 0.799477 0.872875
vt 0.832657 0.786493
vt 0.793539 0.823812
vt 0.698541 0.860200
vt 0.840254 0.691500
vt 0.749190 0.728338
vt 0.925936 0.971353
vn 0.378796 0.908750 0.175115
vn 0.301065 0.722282 0.622578
vn 0.723624 0.297830 0.622578
vn 0.722282 -0.301065 0.622578
vn 0.908750 -0.378796 0.175115
vn 0.297830 -0.723624 0.622578
vn -0.301065 -0.722312 0.622578
vn -0.378796 -0.908750 0.175115
vn -0.723624 -0.297830 0.622578
vn -0.722312 0.301065 0.622578
vn -0.908750 0.378796 0.175115
vn -0.297830 0.723624 0.622578
vn -0.374706 0.910428 0.175115
vn 0.000000 0.000000 1.000000
vn 0.897153 0.369243 0.242378
vn 0.373272 0.895474 0.242378
vn 0.895474 -0.373272 0.242378
vn 0.910428 0.374706 0.175115
vn 0.374706 -0.910428 0.175115
vn 0.369243 -0.897153 0.242378
vn -0.373272 -0.895474 0.242378
vn -0.897153 -0.369243 0.242378
vn -0.895474 0.373272 0.242378
vn -0.910428 -0.374706 0.175115
vn -0.369243 0.897153 0.242378
vn 0.849094 0.349482 0.396109
vn 0.847521 -0.353279 0.396108
vn 0.349482 -0.849094 0.396108
vn -0.353279 -0.847521 0.396108
vn -0.849094 -0.349482 0.396108
vn -0.847521 0.353279 0.396108
vn -0.349482 0.849094 0.396109
vn 0.353279 0.847521 0.396109
vn 0.607715 0.790368 0.077181
vn 0.497107 0.861014 -0.107422
vn 0.994214 -0.000000 -0.107422
vn 0.988342 0.131108 0.077120
vn 0.497107 -0.861014 -0.107422
vn 0.380779 -0.921384 0.077517
vn -0.497107 -0.861014 -0.107423
vn -0.380779 -0.921384 0.077548
vn -0.994213 -0.000000 -0.107422
vn -0.988342 0.131138 0.077059
vn -0.497107 0.861014 -0.107422
vn -0.607746 0.790338 0.077120
vn 0.030274 -0.897122 0.440687
vn 0.792077 0.422315 0.440687
vn 0.298257 -0.863643 0.406384
vn 0.897061 0.173498 0.406384
vn 0.182501 -0.734092 -0.654042
vn 0.726981 0.208960 -0.654042
vn 0.098727 0.853664 -0.511338
vn -0.688314 -0.513230 -0.512619
vn 0.000153 -0.714896 -0.699179
vn -0.725455 -0.311960 -0.613483
vn -0.092532 0.784234 -0.613483
vn 0.613575 0.357280 -0.704154
vn 0.761773 0.474776 0.440687
vn 0.598804 0.690115 0.406384
vn -0.598804 0.690115 0.406384
vn 0.544481 0.525101 -0.654042
vn -0.544481 0.525101 -0.654042
vn 0.632893 -0.472274 -0.613483
vn 0.788903 -0.339488 -0.512192
vn -0.788903 -0.339518 -0.512162
vn -0.632893 -0.472274 -0.613483
vn -0.761773 0.474776 0.440687
vn -0.792077 0.422315 0.440687
vn -0.897061 0.173498 0.406384
vn -0.298257 -0.863643 0.406384
vn -0.726981 0.208960 -0.654042
vn -0.182501 -0.734092 -0.654042
vn 0.725455 -0.311960 -0.613483
vn 0.092532 0.784234 -0.613483
vn -0.098483 0.853847 -0.511093
vn -0.030274 -0.897122 0.440687
vn 0.688131 -0.513352 -0.512711
vn -0.614765 0.357189 -0.703146
vn 0.000000 0.000000 -1.000000
vn 0.208187 0.478009 -0.853326
vn 0.323662 0.456484 -0.828773
vn -0.243262 0.450309 -0.859096
vn -0.508534 0.215083 -0.833746
vn -0.509585 -0.036302 -0.859654
vn -0.476303 -0.217113 -0.852055
vn -0.323662 -0.456483 -0.828774
vn -0.208187 -0.478008 -0.853327
vn 0.476303 0.217114 -0.852054
vn 0.509585 0.036303 -0.859654
vn 0.243262 -0.450308 -0.859096
vn 0.508534 -0.215082 -0.833746
vn 0.199559 -0.504172 -0.840230
vn -0.199559 0.504173 -0.840230
s 1
f 1/1/1 9/2/2 16/3/3
f 16/3/3 15/4/4 7/5/5
f 7/5/5 15/4/4 14/6/6
f 14/6/6 13/7/7 5/8/8
f 5/8/8 13/7/7 12/9/9
f 12/9/9 11/10/10 3/11/11
f 11/12/10 10/13/12 2/14/13
f 16/15/3 9/16/2 17/17/14
f 15/18/4 16/15/3 17/17/14
f 14/19/6 15/18/4 17/17/14
f 13/20/7 14/19/6 17/17/14
f 12/21/9 13/20/7 17/17/14
f 11/22/10 12/21/9 17/17/14
f 10/23/12 11/24/10 17/17/14
f 9/16/2 10/23/12 17/17/14
f 27/25/15 26/26/16 1/1/1
f 28/27/17 27/25/15 8/28/18
f 6/29/19 29/30/20 28/27/17
f 30/31/21 29/30/20 6/29/19
f 31/32/22 30/31/21 5/8/8
f 32/33/23 31/32/22 4/34/24
f 33/35/25 32/36/23 3/37/11
f 26/26/16 27/25/15 25/38/26
f 28/27/17 24/39/27 25/38/26
f 29/30/20 23/40/28 24/39/27
f 30/31/21 22/41/29 23/40/28
f 31/32/22 83/42/30 22/41/29
f 31/32/22 32/33/23 20/43/31
f 33/35/25 19/44/32 20/45/31
f 33/35/25 26/26/16 18/46/33
f 26/26/16 33/35/25 2/14/13
f 10/13/12 9/2/2 1/1/1
f 8/28/18 1/1/1 16/3/3
f 8/28/18 16/3/3 7/5/5
f 6/29/19 7/5/5 14/6/6
f 6/29/19 14/6/6 5/8/8
f 4/34/24 5/8/8 12/9/9
f 4/34/24 12/9/9 3/11/11
f 3/37/11 11/12/10 2/14/13
f 8/28/18 27/25/15 1/1/1
f 7/5/5 28/27/17 8/28/18
f 7/5/5 6/29/19 28/27/17
f 5/8/8 30/31/21 6/29/19
f 4/34/24 31/32/22 5/8/8
f 3/11/11 32/33/23 4/34/24
f 2/14/13 33/35/25 3/37/11
f 18/46/33 26/26/16 25/38/26
f 27/25/15 28/27/17 25/38/26
f 28/27/17 29/30/20 24/39/27
f 29/30/20 30/31/21 23/40/28
f 30/31/21 31/32/22 22/41/29
f 83/42/30 31/32/22 20/43/31
f 32/36/23 33/35/25 20/45/31
f 19/44/32 33/35/25 18/46/33
f 1/1/1 26/26/16 2/14/13
f 2/14/13 10/13/12 1/1/1
s 2
f 34/47/34 40/48/35 45/49/36
f 39/50/37 45/49/36 44/51/38
f 38/52/39 44/51/38 43/53/40
f 37/54/41 43/53/40 42/55/42
f 36/56/43 42/55/42 41/57/44
f 35/58/45 41/59/44 40/48/35
f 38/60/39 46/61/46 47/62/47
f 46/61/46 48/63/48 49/64/49
f 48/63/48 50/65/50 51/66/51
f 55/67/52 54/68/53 53/69/54
f 57/70/55 54/68/53 55/67/52
f 38/52/39 37/54/41 53/71/54
f 57/70/55 56/72/56 51/73/51
f 34/47/34 39/50/37 52/74/57
f 46/61/46 57/70/55 50/65/50
f 51/75/51 56/76/56 47/62/47
f 57/70/55 46/61/46 54/68/53
f 56/76/56 55/77/52 47/62/47
f 38/60/39 53/69/54 54/68/53
f 55/77/52 52/78/57 39/79/37
f 58/80/58 60/81/59 61/82/60
f 60/81/59 62/83/61 63/84/62
f 67/85/63 64/86/64 65/87/65
f 67/85/63 66/88/66 63/89/62
f 58/80/58 67/85/63 62/83/61
f 63/90/62 66/91/66 59/92/67
f 67/85/63 58/80/58 64/86/64
f 66/91/66 65/93/65 59/92/67
f 68/94/68 70/95/69 71/96/70
f 70/95/69 72/97/71 73/98/72
f 76/99/73 77/100/74 74/101/75
f 77/100/74 76/99/73 73/102/72
f 68/94/68 77/100/74 72/97/71
f 73/103/72 76/104/73 69/105/76
f 77/100/74 68/94/68 74/101/75
f 76/104/73 75/106/77 69/105/76
f 36/107/43 68/94/68 69/105/76
f 34/108/34 58/80/58 59/92/67
f 64/86/64 52/109/57 78/110/78
f 74/101/75 78/111/78 53/112/54
f 53/112/54 78/111/78 79/113/79
f 78/110/78 52/109/57 79/114/79
f 52/115/57 53/69/54 79/116/79
f 36/56/43 35/117/45 78/118/78
f 74/101/75 68/94/68 36/107/43
f 65/93/65 78/119/78 35/120/45
f 34/108/34 52/109/57 64/86/64
f 37/121/41 69/105/76 75/106/77
f 39/50/37 34/47/34 45/49/36
f 38/52/39 39/50/37 44/51/38
f 37/54/41 38/52/39 43/53/40
f 36/56/43 37/54/41 42/55/42
f 35/117/45 36/56/43 41/57/44
f 34/47/34 35/58/45 40/48/35
f 39/79/37 38/60/39 47/62/47
f 47/62/47 46/61/46 49/64/49
f 49/122/49 48/63/48 51/66/51
f 52/115/57 55/67/52 53/69/54
f 56/72/56 57/70/55 55/67/52
f 50/65/50 57/70/55 51/73/51
f 48/63/48 46/61/46 50/65/50
f 49/64/49 51/75/51 47/62/47
f 46/61/46 38/60/39 54/68/53
f 47/62/47 55/77/52 39/79/37
f 59/92/67 58/80/58 61/82/60
f 61/123/60 60/81/59 63/84/62
f 66/88/66 67/85/63 65/87/65
f 62/83/61 67/85/63 63/89/62
f 60/81/59 58/80/58 62/83/61
f 61/82/60 63/90/62 59/92/67
f 69/105/76 68/94/68 71/96/70
f 71/124/70 70/95/69 73/98/72
f 75/125/77 76/99/73 74/101/75
f 72/97/71 77/100/74 73/102/72
f 70/95/69 68/94/68 72/97/71
f 71/96/70 73/103/72 69/105/76
f 37/121/41 36/107/43 69/105/76
f 35/120/45 34/108/34 59/92/67
f 65/87/65 64/86/64 78/110/78
f 75/125/77 74/101/75 53/112/54
f 78/111/78 74/101/75 36/107/43
f 59/92/67 65/93/65 35/120/45
f 58/80/58 34/108/34 64/86/64
f 53/126/54 37/121/41 75/106/77
s 3
f 84/127/80 91/128/81 92/129/82
f 86/130/83 93/131/84 87/132/85
f 93/131/84 89/133/86 81/134/87
f 92/129/82 93/131/84 86/130/83
f 84/127/80 21/135/88 90/136/89
f 81/134/87 89/133/86 88/137/90
f 88/138/90 90/136/89 82/139/91
f 80/140/92 88/137/90 82/141/91
f 21/135/88 82/139/91 90/136/89
f 85/142/93 92/129/82 86/130/83
f 85/142/93 84/127/80 92/129/82
f 87/132/85 93/131/84 81/134/87
f 91/128/81 84/127/80 90/136/89
f 80/140/92 81/134/87 88/137/90
