# Blender v2.70 (sub 0) OBJ File: 'platform15.blend'
# www.blender.org
o platformSolarPanel_Plane.024
v -0.134191 -0.612813 -0.058908
v -0.507335 -0.982273 0.056653
v -0.507335 -0.982273 -0.056422
v -0.135958 -0.614562 0.056653
v -0.135958 -0.614562 -0.056422
v -0.509101 -0.984022 0.059139
v -0.505284 -0.987970 0.059139
v -0.509101 -0.984022 -0.058908
v -0.505284 -0.987970 -0.058908
v -0.134191 -0.612813 0.059139
v -0.130374 -0.616761 0.059139
v -0.130374 -0.616761 -0.058908
v -0.503518 -0.986221 -0.056422
v -0.503518 -0.986221 0.056653
v -0.132141 -0.618510 -0.056422
v -0.132141 -0.618510 0.056653
vt 0.029422 0.184660
vt 0.516184 0.184979
vt 0.507675 0.332207
vt 0.020913 0.331888
vt 0.531779 0.273379
vt 0.531779 0.055658
vt 0.548402 0.055658
vt 0.510714 0.016054
vt 0.502204 0.163282
vt 0.015442 0.162963
vt 0.531600 0.032146
vt 0.987707 0.032146
vt 0.987801 0.040106
vt 0.011169 0.168387
vt 0.020283 0.010630
vt 0.023951 0.015735
vt 0.514987 0.010630
vt 0.505872 0.168387
vt 0.548402 0.273379
vt 0.562828 0.272515
vt 0.562828 0.055193
vt 0.577363 0.272515
vt 0.531694 0.040106
vt 0.016640 0.337312
vt 0.025754 0.179555
vt 0.520457 0.179555
vt 0.511343 0.337312
vt 0.577362 0.055193
vt 0.988358 0.011911
vt 0.988256 0.019870
vt 0.532149 0.019870
vt 0.532251 0.011911
vn -0.703574 0.710593 0.000000
vn -0.815973 0.008881 0.577960
vn -0.815973 0.008911 -0.577960
vn -0.008911 -0.816858 -0.576708
vn 0.703574 -0.710593 0.000000
vn -0.008911 -0.816858 0.576708
vn 0.815973 -0.008881 0.577960
vn 0.008911 0.816889 0.576708
vn 0.815973 -0.008881 -0.577960
vn 0.008911 0.816858 -0.576708
s 1
f 2/1/1 4/2/1 5/3/1
f 3/4/1 2/1/1 5/3/1
f 6/5/2 8/6/3 9/7/4
f 15/8/5 16/9/5 14/10/5
f 7/11/6 11/12/7 10/13/8
f 7/14/6 9/15/4 13/16/5
f 12/17/9 11/18/7 16/9/5
f 9/15/4 12/17/9 15/8/5
f 16/9/5 11/18/7 7/14/6
f 7/19/6 6/5/2 9/7/4
f 11/20/7 12/21/9 10/22/8
f 13/16/5 15/8/5 14/10/5
f 6/23/2 7/11/6 10/13/8
f 14/10/5 7/14/6 13/16/5
f 15/8/5 12/17/9 16/9/5
f 13/16/5 9/15/4 15/8/5
f 14/10/5 16/9/5 7/14/6
f 8/24/3 6/25/2 2/1/1
f 10/26/8 1/27/10 5/3/1
f 6/25/2 10/26/8 4/2/1
f 5/3/1 1/27/10 8/24/3
f 3/4/1 8/24/3 2/1/1
f 4/2/1 10/26/8 5/3/1
f 2/1/1 6/25/2 4/2/1
f 3/4/1 5/3/1 8/24/3
f 12/21/9 1/28/10 10/22/8
f 1/29/10 12/30/9 9/31/4
f 8/32/3 1/29/10 9/31/4
