# Blender v2.70 (sub 0) OBJ File: 'asteroidsLOD4.blend'
# www.blender.org
o asteroid3Collider_Cube.024
v -0.953294 0.701457 0.084053
v 0.611008 0.920079 0.169781
v -1.184844 0.196841 0.727871
v 0.523888 0.309085 1.087230
v -1.278793 -0.120436 0.756369
v 0.468608 -0.139298 1.123407
v 0.564517 0.657731 0.859870
v -1.102482 0.475764 0.555191
v -0.296249 0.857602 0.178740
v -0.524777 0.211431 1.003056
v -0.530033 -0.227356 1.061536
v -0.414394 0.651765 0.741009
v -1.306336 -0.486028 0.625575
v 0.407452 -0.633026 0.909589
v -0.578000 -0.561713 0.849597
v -1.259022 -0.626097 0.336093
v 0.392264 -0.839950 0.647532
v -0.501346 -0.731413 0.489078
v -1.165968 -0.671375 -0.074453
v 0.445763 -0.927479 0.247639
v -0.523354 -0.838728 0.029706
v -1.110712 -0.579966 -0.416763
v 0.500670 -0.893474 -0.237308
v -0.448724 -0.784388 -0.321901
v -0.927863 0.543892 -0.482075
v 0.663630 0.710808 -0.599628
v -0.352081 0.642120 -0.581730
v -0.932694 0.213518 -0.880228
v 0.661798 0.295409 -1.011722
v -0.293697 0.276111 -1.026974
v -1.069297 -0.433853 -0.701880
v 0.539984 -0.666592 -0.699832
v -0.380476 -0.572207 -0.724617
v -0.938791 -0.192259 -0.914011
v 0.605861 -0.305018 -1.034023
v -0.309127 -0.189673 -1.021293
v -1.537532 0.161862 -0.551626
v -1.598584 0.337017 -0.034412
v -1.687135 -0.012243 0.412760
v -1.668381 -0.311463 0.350561
v -1.440978 -0.474124 -0.216764
v -1.518026 -0.227468 -0.620168
v -1.743037 0.087219 -0.271917
v -1.744729 -0.065224 -0.301103
v 1.410757 0.640626 0.047599
v 1.265516 0.026745 0.863781
v 1.557461 -0.338312 0.494401
v 1.233971 0.497918 0.675991
v 1.236883 -0.473620 0.774768
v 1.148137 -0.738907 0.466307
v 1.175329 -0.834871 -0.011378
v 1.450017 0.548209 -0.464999
v 1.421051 0.143437 -0.867052
v 1.320248 -0.706747 -0.529239
v 1.350909 -0.290088 -0.897593
v 1.530360 -0.663699 0.039455
v 1.647930 0.179383 0.402008
v 1.696710 0.348130 -0.162310
v 1.765102 -0.104584 -0.519259
v 1.644115 -0.548819 -0.389326
v 1.801545 -0.185990 -0.047645
v -1.793240 0.019242 0.073150
v -1.786379 -0.151990 0.039396
vn -0.203101 0.778222 0.594226
vn -0.462966 0.728141 0.505387
vn -0.482040 0.403912 0.777459
vn -0.237129 0.336741 0.911222
vn -0.520859 -0.024354 0.853267
vn -0.147008 -0.931059 -0.333872
vn -0.120853 -0.755089 -0.644337
vn 0.013642 -0.797449 -0.603168
vn 0.123264 0.319163 0.939634
vn -0.212012 -0.191107 0.958373
vn -0.487381 -0.610401 0.624348
vn -0.204535 -0.718467 0.664754
vn -0.414808 -0.891324 0.182928
vn -0.179296 -0.933744 0.309763
vn 0.036500 -0.902280 0.429548
vn -0.170354 -0.985321 0.009430
vn -0.301981 -0.703269 -0.643574
vn 0.121830 0.990570 0.062655
vn -0.142979 0.988952 0.038942
vn -0.103763 -0.302774 -0.947386
vn 0.068636 -0.354747 -0.932401
vn -0.117710 0.412976 -0.903073
vn -0.291879 -0.256417 -0.921415
vn -0.323527 0.842128 -0.431410
vn -0.343547 0.428541 -0.835627
vn -0.630757 0.463393 -0.622364
vn -0.358165 0.933561 0.010468
vn -0.664510 0.747215 0.008087
vn -0.812494 0.214606 0.541978
vn -0.799799 -0.492508 0.343120
vn -0.339244 -0.857082 -0.387677
vn -0.384350 -0.914609 -0.125431
vn -0.609210 -0.763543 -0.214026
vn -0.659749 -0.359691 -0.659780
vn -0.885495 0.353679 -0.301279
vn -0.959288 0.246895 0.137028
vn -0.934965 -0.354534 -0.010681
vn 0.415082 -0.324778 -0.849818
vn 0.334361 -0.825251 -0.455092
vn 0.124058 0.403455 -0.906522
vn 0.105777 0.863704 -0.492721
vn 0.537675 0.739189 -0.405530
vn 0.551317 0.827113 0.108921
vn 0.369671 -0.842830 0.391064
vn 0.487106 -0.489090 0.723502
vn 0.027436 -0.994903 0.096835
vn 0.115513 -0.155919 0.980987
vn 0.549486 0.073397 0.832240
vn 0.859310 0.272774 0.432600
vn 0.514512 0.628163 0.583636
vn 0.879208 0.474013 -0.047334
vn 0.509415 0.310312 -0.802576
vn 0.910581 -0.002136 -0.413282
vn 0.752708 -0.601550 -0.267434
vn 0.983154 -0.136479 0.121494
vn 0.798517 -0.332957 0.501419
vn 0.664266 -0.731468 0.153874
vn 0.013215 -0.968261 -0.249458
vn 0.082614 -0.624134 0.776910
vn 0.129826 0.757225 0.640065
vn -0.145482 0.872768 -0.465865
vn -0.910337 -0.204901 -0.359508
vn 0.282815 -0.959105 0.009674
s 1
f 12//1 8//2 3//3
f 10//4 3//3 5//5
f 24//6 33//7 32//8
f 4//9 10//4 11//10
f 11//10 5//5 13//11
f 15//12 13//11 16//13
f 15//12 18//14 17//15
f 17//15 18//14 21//16
f 31//17 33//7 24//6
f 2//18 9//19 12//1
f 33//7 36//20 35//21
f 30//22 36//20 34//23
f 25//24 28//25 37//26
f 1//27 38//28 8//2
f 5//5 3//3 39//29
f 16//13 13//11 40//30
f 22//31 19//32 41//33
f 34//23 31//17 42//34
f 38//28 37//26 43//35
f 38//28 43//35 62//36
f 41//33 40//30 63//37
f 35//21 55//38 54//39
f 29//40 26//41 52//42
f 2//18 45//43 52//42
f 17//15 50//44 49//45
f 17//15 20//46 50//44
f 4//9 6//47 46//48
f 46//48 57//49 48//50
f 52//42 45//43 58//51
f 55//38 53//52 59//53
f 60//54 59//53 61//55
f 59//53 58//51 61//55
f 58//51 57//49 61//55
f 57//49 47//56 61//55
f 47//56 56//57 61//55
f 60//54 61//55 56//57
f 39//29 38//28 62//36
f 10//4 12//1 3//3
f 11//10 10//4 5//5
f 23//58 24//6 32//8
f 6//47 4//9 11//10
f 15//12 11//10 13//11
f 18//14 15//12 16//13
f 14//59 15//12 17//15
f 20//46 17//15 21//16
f 22//31 31//17 24//6
f 7//60 2//18 12//1
f 32//8 33//7 35//21
f 28//25 30//22 34//23
f 32//8 35//21 54//39
f 53//52 29//40 52//42
f 26//41 2//18 52//42
f 14//59 17//15 49//45
f 27//61 9//19 26//41
f 41//33 42//34 22//31
f 5//5 39//29 40//30
f 41//33 63//37 42//34
f 9//19 2//18 26//41
f 31//17 34//23 33//7
f 63//37 44//62 42//34
f 40//30 41//33 16//13
f 34//23 36//20 33//7
f 42//34 37//26 28//25
f 44//62 37//26 42//34
f 1//27 12//1 9//19
f 26//41 29//40 30//22
f 25//24 27//61 28//25
f 62//36 44//62 63//37
f 25//24 1//27 27//61
f 40//30 39//29 63//37
f 28//25 27//61 30//22
f 1//27 9//19 27//61
f 7//60 48//50 2//18
f 39//29 62//36 63//37
f 27//61 26//41 30//22
f 48//50 45//43 2//18
f 62//36 43//35 44//62
f 58//51 59//53 52//42
f 44//62 43//35 37//26
f 59//53 53//52 52//42
f 53//52 55//38 29//40
f 38//28 25//24 37//26
f 10//4 4//9 12//1
f 38//28 1//27 25//24
f 4//9 7//60 12//1
f 59//53 60//54 55//38
f 4//9 48//50 7//60
f 60//54 54//39 55//38
f 8//2 12//1 1//27
f 60//54 56//57 54//39
f 48//50 57//49 45//43
f 4//9 46//48 48//50
f 56//57 51//63 54//39
f 47//56 49//45 56//57
f 57//49 58//51 45//43
f 51//63 23//58 54//39
f 49//45 50//44 56//57
f 51//63 20//46 23//58
f 50//44 51//63 56//57
f 39//29 8//2 38//28
f 20//46 21//16 23//58
f 50//44 20//46 51//63
f 57//49 46//48 47//56
f 39//29 3//3 8//2
f 36//20 30//22 35//21
f 21//16 24//6 23//58
f 46//48 49//45 47//56
f 30//22 29//40 35//21
f 21//16 19//32 24//6
f 46//48 6//47 49//45
f 29//40 55//38 35//21
f 19//32 22//31 24//6
f 11//10 14//59 6//47
f 6//47 14//59 49//45
f 18//14 16//13 21//16
f 11//10 15//12 14//59
f 22//31 42//34 31//17
f 16//13 19//32 21//16
f 54//39 23//58 32//8
f 16//13 41//33 19//32
f 5//5 40//30 13//11
f 42//34 28//25 34//23
