# Blender v2.70 (sub 0) OBJ File: 'asteroidsLOD3.blend'
# www.blender.org
o asteroidLOD4_Cube.012
v 0.403586 0.544134 -1.297195
v -0.144112 0.395594 -1.462430
v 0.116493 0.942178 -0.920344
v -0.331395 0.774612 -1.071224
v 1.304780 0.511396 -0.664415
v 1.004820 0.907980 -0.406505
v 1.511001 0.322871 -0.272558
v 1.236151 0.694423 0.031138
v 0.591780 0.027320 -1.414843
v 0.089643 -0.203407 -1.589458
v 1.365651 0.018356 -0.649822
v 0.908240 0.584990 -1.002548
v 0.589295 0.982781 -0.710953
v 1.008179 0.073476 -1.073142
v 1.563275 -0.054854 0.161208
v 1.463799 -0.415003 -0.111481
v 1.322673 0.370408 0.432037
v 1.302595 -0.414605 0.650800
v 1.252884 -0.694652 0.330038
v 1.177020 -0.018405 0.835250
v 0.944362 -0.486948 -0.881260
v 1.136563 -0.727565 -0.374427
v 0.946308 -0.992184 -0.029167
v 0.894805 -0.558302 1.001298
v 0.871468 -0.876958 0.681319
v 0.436461 -1.170719 -0.063209
v 0.387856 -1.119288 0.461352
v 0.463354 -0.580263 -1.250311
v 0.155216 -0.925285 -0.948204
v -0.177833 -1.087498 -0.574002
v -0.141335 -1.192595 0.137797
v 0.828167 -0.151254 1.169534
v -0.647626 -0.858802 -0.781254
v -0.779815 -0.921523 0.156142
v -1.219141 -0.372568 -0.388529
v -1.214293 -0.490099 0.211271
v -1.367278 0.207930 -0.382572
v -1.459105 0.122189 0.205579
v 0.836012 0.987605 0.217505
v 0.874352 0.710592 0.657040
v 0.268633 1.183881 0.341595
v 0.248797 0.907176 0.858743
v 0.812495 0.327522 0.982529
v 0.171319 -0.587024 1.245084
v 0.233052 -0.026526 1.407139
v 0.239536 0.482136 1.234625
v -0.596404 -0.879160 0.808203
v 0.000540 -1.027969 0.785301
v -1.094324 -0.388467 0.802652
v -1.304739 0.281660 0.689552
v -0.534024 -0.376700 1.229700
v -0.315032 0.942068 0.898107
v -0.426873 0.171248 1.347497
v -0.291766 0.573001 1.247693
v -0.256226 1.131993 0.292432
v -0.875459 -0.129101 1.120873
v -0.844700 0.502160 1.032980
v -0.781553 0.878326 0.692996
v -1.156214 0.709601 0.373383
v -0.363560 -0.627413 -1.297176
v -0.594661 0.051072 -1.416105
v -0.997669 -0.236637 -1.042512
v -0.797186 0.553548 -1.057366
v -1.127014 0.399978 -0.814223
v 0.362433 1.189097 -0.270923
v -0.556489 1.073726 -0.494567
v -0.665349 1.065374 0.179086
v -0.897981 0.822987 -0.665088
v -1.210229 0.773109 -0.153968
v -1.413854 0.507599 0.067536
vt 0.143796 0.587605
vt 0.127762 0.624165
vt 0.094431 0.604968
vt 0.172657 0.604223
vt 0.199627 0.617734
vt 0.189049 0.651140
vt 0.410437 0.228779
vt 0.408069 0.204752
vt 0.437378 0.187501
vt 0.418540 0.523532
vt 0.424961 0.491516
vt 0.453670 0.493555
vt 0.114814 0.650349
vt 0.080437 0.635822
vt 0.442120 0.465387
vt 0.161420 0.639703
vt 0.421429 0.558745
vt 0.445853 0.528598
vt 0.473638 0.445108
vt 0.400583 0.175529
vt 0.427380 0.154431
vt 0.381515 0.143460
vt 0.398783 0.122773
vt 0.490212 0.466717
vt 0.509800 0.434006
vt 0.507418 0.496224
vt 0.484357 0.527142
vt 0.533658 0.488760
vt 0.419220 0.307345
vt 0.394560 0.297711
vt 0.389114 0.269207
vt 0.277388 0.365455
vt 0.252362 0.375015
vt 0.268081 0.332200
vt 0.202274 0.317660
vt 0.229443 0.347910
vt 0.199897 0.361842
vt 0.138241 0.536268
vt 0.114493 0.573547
vt 0.488331 0.565788
vt 0.463577 0.593788
vt 0.446735 0.562827
vt 0.520032 0.565978
vt 0.240084 0.316925
vt 0.207523 0.277629
vt 0.230200 0.265396
vt 0.352001 0.129588
vt 0.365687 0.108171
vt 0.158266 0.313094
vt 0.177522 0.261987
vt 0.123694 0.317973
vt 0.498909 0.077975
vt 0.477858 0.040877
vt 0.498909 0.021762
vt 0.377387 0.220479
vt 0.341247 0.232522
vt 0.323387 0.204111
vt 0.365485 0.193500
vt 0.353659 0.163107
vt 0.310824 0.134852
vt 0.244395 0.401267
vt 0.312807 0.169760
vt 0.197176 0.401694
vt 0.160402 0.355585
vt 0.234988 0.809237
vt 0.269890 0.794323
vt 0.275574 0.833718
vt 0.150492 0.392581
vt 0.126804 0.385470
vt 0.292158 0.208182
vt 0.283732 0.177677
vt 0.514233 0.681982
vt 0.503662 0.653388
vt 0.529718 0.620796
vt 0.209172 0.549340
vt 0.184468 0.525237
vt 0.201265 0.507670
vt 0.447074 0.281456
vt 0.436927 0.242503
vt 0.447074 0.219583
vt 0.299768 0.798243
vt 0.314103 0.835888
vt 0.310682 0.868803
vt 0.345733 0.834987
vt 0.334589 0.808861
vt 0.242921 0.841477
vt 0.248634 0.867606
vt 0.018109 0.981653
vt 0.019614 0.951628
vt 0.057536 0.959710
vt 0.049630 0.993695
vt 0.101434 0.964983
vt 0.083262 0.920075
vt 0.044012 0.910323
vt 0.007368 0.899591
vt 0.058941 0.873893
vt 0.067769 0.588885
vt 0.089626 0.554659
vt 0.220930 0.587270
vt 0.187898 0.573490
vt 0.295737 0.897903
vt 0.338607 0.867405
vt 0.161330 0.509481
vt 0.277722 0.869049
vt 0.109887 0.530355
vt 0.081709 0.533797
vt 0.422774 0.117882
vt 0.391766 0.097177
vt 0.394248 0.068680
vt 0.220826 0.867582
vt 0.252718 0.891014
vt 0.241064 0.913575
vt 0.214284 0.894671
vt 0.114861 0.926332
vt 0.439570 0.208845
vt 0.147020 0.659729
vt 0.519825 0.455292
vt 0.281869 0.770726
vt 0.246205 0.772834
vt 0.287192 0.753059
vt 0.550709 0.512284
vt 0.129234 0.285358
vt 0.429314 0.382875
vt 0.391882 0.381604
vt 0.445330 0.354654
vt 0.319043 0.104567
vt 0.121735 0.357067
vt 0.276756 0.151575
vt 0.234915 0.512251
vt 0.223630 0.555355
vt 0.211867 0.504681
vt 0.310157 0.782679
vt 0.085614 0.995783
vt 0.085299 0.884884
vt 0.027193 0.866942
vt 0.317388 0.899631
vt 0.045520 0.435254
vt 0.019220 0.472500
vt 0.019496 0.416921
vn 0.042329 0.833705 -0.550523
vn 0.270913 0.537309 -0.798669
vn -0.126957 0.447035 -0.885433
vn 0.294137 0.831202 -0.471755
vn 0.560991 0.801080 -0.208625
vn 0.765831 0.420698 -0.486251
vn 0.751518 0.641377 0.154363
vn 0.954741 0.277017 -0.108036
vn 0.526566 0.498520 -0.688589
vn 0.847621 -0.130619 -0.514206
vn 0.489669 0.037843 -0.871059
vn 0.073092 -0.196936 -0.977660
vn 0.684774 -0.008240 -0.728660
vn 0.984222 0.001862 0.176855
vn 0.807672 0.414655 0.419111
vn 0.759484 0.159368 0.630665
vn 0.819025 -0.301889 0.487869
vn 0.899625 -0.405805 -0.161077
vn 0.600787 -0.689596 -0.404309
vn 0.614215 -0.546037 -0.569659
vn 0.482955 -0.866573 -0.125523
vn 0.756249 -0.624348 0.195502
vn 0.485336 -0.490036 0.724052
vn 0.396710 -0.774071 0.493362
vn -0.196326 -0.977752 0.073672
vn 0.210486 -0.930113 0.300882
vn -0.041719 -0.858882 0.510422
vn -0.304086 0.915830 -0.262154
vn -0.227790 0.719871 -0.655629
vn 0.378552 -0.602588 -0.702506
vn 0.168310 -0.841487 -0.513321
vn 0.239692 -0.962401 -0.127689
vn -0.155248 -0.946654 -0.282296
vn 0.505844 -0.011780 0.862514
vn -0.554857 -0.830653 0.045961
vn -0.505844 -0.780236 -0.367779
vn -0.840205 -0.536637 0.077761
vn -0.984313 -0.145177 0.099948
vn -0.935881 0.023774 -0.351451
vn 0.500717 0.832362 0.237495
vn 0.143803 0.960143 0.239570
vn 0.245949 0.754418 0.608539
vn 0.552782 0.628773 0.546800
vn 0.541459 0.417035 0.729972
vn 0.152806 -0.004883 0.988220
vn 0.263131 0.477645 0.838191
vn 0.065523 -0.524308 0.848994
vn -0.394147 -0.783349 0.480575
vn -0.762322 -0.401196 0.507797
vn -0.831202 0.146855 0.536180
vn -0.336070 -0.362621 0.869198
vn -0.583483 -0.060854 0.809809
vn -0.147069 0.811365 0.565691
vn -0.120975 0.514237 0.849055
vn -0.313852 0.063356 0.947325
vn -0.153233 0.978210 0.139927
vn -0.551378 0.388012 0.738517
vn -0.463668 0.773614 0.431837
vn -0.918363 0.395520 0.010681
vn -0.267953 -0.605548 -0.749290
vn -0.472579 0.072024 -0.878323
vn -0.768426 -0.262185 -0.583728
vn -0.870785 -0.436384 -0.226417
vn -0.824854 0.283700 -0.488968
vn -0.487838 0.517106 -0.703238
vn 0.142216 0.980041 -0.138707
vn -0.351726 0.931608 0.091281
vn -0.668783 0.684042 0.291086
vn -0.546434 0.725364 -0.418592
vn -0.699026 0.695639 -0.165593
s 1
f 3/1/1 1/2/2 2/3/3
f 13/4/4 6/5/5 5/6/6
f 6/7/5 8/8/7 7/9/8
f 12/10/9 5/11/6 11/12/10
f 1/2/2 9/13/11 10/14/12
f 5/11/6 7/15/8 11/12/10
f 3/1/1 13/4/4 12/16/9
f 1/17/2 12/10/9 14/18/13
f 11/12/10 7/15/8 15/19/14
f 8/8/7 17/20/15 15/21/14
f 17/20/15 20/22/16 18/23/17
f 16/24/18 15/19/14 18/25/17
f 16/24/18 22/26/19 21/27/20
f 11/12/10 21/27/20 14/18/13
f 23/28/21 22/26/19 16/24/18
f 19/29/22 18/30/17 24/31/23
f 19/32/22 25/33/24 23/34/21
f 31/35/25 27/36/26 48/37/27
f 66/38/28 3/1/1 4/39/29
f 14/18/13 21/27/20 28/40/30
f 10/41/12 9/42/11 28/40/30
f 29/43/31 28/40/30 21/27/20
f 26/44/32 30/45/33 29/46/31
f 31/35/25 30/45/33 26/44/32
f 27/36/26 31/35/25 26/44/32
f 32/47/34 24/48/23 18/23/17
f 31/35/25 34/49/35 33/50/36
f 33/50/36 34/49/35 36/51/37
f 36/52/37 38/53/38 37/54/39
f 17/20/15 8/8/7 39/55/40
f 39/55/40 41/56/41 42/57/42
f 20/22/16 17/20/15 40/58/43
f 32/47/34 20/22/16 43/59/44
f 24/48/23 32/47/34 45/60/45
f 24/61/23 48/37/27 27/36/26
f 46/62/46 45/60/45 32/47/34
f 46/62/46 43/59/44 40/58/43
f 25/33/24 27/36/26 26/44/32
f 24/61/23 44/63/47 48/37/27
f 48/37/27 47/64/48 34/49/35
f 36/51/37 34/49/35 47/64/48
f 36/65/37 49/66/49 50/67/50
f 47/64/48 51/68/51 56/69/52
f 46/62/46 42/57/42 52/70/53
f 51/68/51 47/64/48 48/37/27
f 45/60/45 46/62/46 54/71/54
f 53/72/55 51/73/51 44/74/47
f 41/75/41 55/76/56 52/77/53
f 57/78/57 56/79/52 51/80/51
f 49/66/49 56/81/52 57/82/57
f 58/83/58 57/82/57 54/84/54
f 53/85/55 54/84/54 57/82/57
f 50/67/50 57/82/57 58/83/58
f 38/86/38 50/67/50 70/87/59
f 30/88/33 33/89/36 60/90/60
f 29/91/31 60/90/60 10/92/12
f 10/92/12 60/90/60 61/93/61
f 62/94/62 61/93/61 60/90/60
f 35/95/63 62/94/62 33/89/36
f 33/89/36 62/94/62 60/90/60
f 61/93/61 62/94/62 64/96/64
f 64/96/64 62/94/62 35/95/63
f 61/97/61 63/98/65 4/39/29
f 8/8/7 6/7/5 39/55/40
f 41/75/41 39/99/40 65/100/66
f 39/99/40 6/5/5 65/100/66
f 6/5/5 13/4/4 65/100/66
f 55/76/56 41/75/41 65/100/66
f 67/101/67 58/83/58 52/102/53
f 66/38/28 67/103/67 55/76/56
f 59/104/68 58/83/58 67/101/67
f 63/98/65 68/105/69 66/38/28
f 63/98/65 64/106/64 68/105/69
f 67/107/67 66/108/28 68/109/69
f 37/110/39 38/86/38 70/87/59
f 67/101/67 69/111/70 59/104/68
f 59/104/68 69/111/70 70/87/59
f 68/112/69 64/113/64 37/110/39
f 2/114/3 10/92/12 61/93/61
f 69/111/70 37/110/39 70/87/59
f 50/67/50 59/104/68 70/87/59
f 4/39/29 3/1/1 2/3/3
f 12/16/9 13/4/4 5/6/6
f 5/115/6 6/7/5 7/9/8
f 14/18/13 12/10/9 11/12/10
f 2/3/3 1/2/2 10/14/12
f 1/2/2 3/1/1 12/16/9
f 9/13/11 1/2/2 14/116/13
f 16/24/18 11/12/10 15/19/14
f 7/9/8 8/8/7 15/21/14
f 15/21/14 17/20/15 18/23/17
f 19/117/22 16/24/18 18/25/17
f 11/12/10 16/24/18 21/27/20
f 19/117/22 23/28/21 16/24/18
f 25/118/24 19/119/22 24/120/23
f 9/42/11 14/18/13 28/40/30
f 21/27/20 26/121/32 29/43/31
f 23/28/21 26/121/32 21/27/20
f 20/22/16 32/47/34 18/23/17
f 30/45/33 31/35/25 33/50/36
f 35/122/63 33/50/36 36/51/37
f 35/123/63 36/124/37 37/125/39
f 40/58/43 17/20/15 39/55/40
f 40/58/43 39/55/40 42/57/42
f 43/59/44 20/22/16 40/58/43
f 44/126/47 24/48/23 45/60/45
f 25/33/24 24/61/23 27/36/26
f 43/59/44 46/62/46 32/47/34
f 42/57/42 46/62/46 40/58/43
f 23/34/21 25/33/24 26/44/32
f 31/35/25 48/37/27 34/49/35
f 49/127/49 36/51/37 47/64/48
f 38/86/38 36/65/37 50/67/50
f 49/127/49 47/64/48 56/69/52
f 54/71/54 46/62/46 52/70/53
f 44/63/47 51/68/51 48/37/27
f 53/128/55 45/60/45 54/71/54
f 45/129/45 53/130/55 44/131/47
f 42/57/42 41/56/41 52/70/53
f 53/85/55 57/82/57 51/132/51
f 50/67/50 49/66/49 57/82/57
f 52/102/53 58/83/58 54/84/54
f 59/104/68 50/67/50 58/83/58
f 29/91/31 30/88/33 60/90/60
f 28/133/30 29/91/31 10/92/12
f 63/134/65 61/93/61 64/96/64
f 37/135/39 64/96/64 35/95/63
f 2/3/3 61/97/61 4/39/29
f 55/136/56 67/101/67 52/102/53
f 4/39/29 63/98/65 66/38/28
f 69/137/70 67/138/67 68/139/69
f 69/111/70 68/112/69 37/110/39
f 55/76/56 65/100/66 66/38/28
f 65/100/66 13/4/4 3/1/1
f 66/38/28 65/100/66 3/1/1
f 22/26/19 23/28/21 21/27/20
