# Blender v2.70 (sub 0) OBJ File: 'asteroidsLOD4.blend'
# www.blender.org
o asteroid8Collider_Cube.015
v 0.131987 -0.196723 1.347076
v -0.240445 0.622812 1.034453
v -0.109099 0.600749 -1.188600
v 0.166240 0.878276 -0.869669
v 0.501468 0.986521 -0.422989
v 0.808259 0.852715 0.562170
v 0.561187 0.774421 0.929214
v 0.863410 0.878894 0.075707
v 0.174288 0.201359 -1.277243
v -0.525769 0.772196 -1.004536
v -0.360309 1.120562 -0.675317
v -0.806551 1.163901 -0.522711
v -1.065550 0.672760 -0.752074
v -0.445680 1.038653 0.734506
v -0.661477 0.891695 0.680716
v -0.766665 0.371830 0.889406
v -1.114745 -0.209050 0.722569
v -1.376492 -0.171122 0.088355
v -1.362704 0.126779 -0.356874
v -1.186443 0.746706 -0.487748
v -0.999143 1.097971 -0.296496
v -0.667755 1.220496 0.341455
v -0.791542 1.292215 0.001429
v -0.559086 1.395615 -0.097881
v -0.181336 1.344809 -0.159030
v -0.422129 1.357770 0.306943
v 0.237217 0.940557 0.821427
v 0.414327 1.107893 0.386011
v -0.045430 1.212765 0.606397
v 0.037675 1.288208 0.147307
v 0.306332 0.434391 1.227619
v -0.375332 0.022859 1.179313
v -0.863839 -0.504899 0.944303
v -0.360325 -0.843758 0.937935
v 0.666239 0.279052 1.176568
v 0.461149 -0.176833 1.333012
v 1.050143 0.255172 0.938996
v 1.097712 -0.345162 0.992489
v 1.014594 0.540818 0.791532
v 1.262886 0.098925 0.786955
v 1.149949 0.635047 0.178767
v -0.174348 0.310140 -1.221037
v -0.704991 0.545450 -0.974549
v -1.036649 0.144263 -0.860896
v -0.814661 -0.398968 -0.957338
v -0.364107 -0.557650 -1.154130
v -0.161602 -0.167029 -1.249005
v -1.249333 0.191597 -0.659474
v -1.158640 -0.443244 -0.694418
v -1.346969 -0.409188 -0.293819
v 0.322252 -1.012275 0.858934
v 0.739315 -0.535096 1.177557
v 1.041965 -0.768537 0.793581
v 0.777183 -1.068886 0.426464
v 1.329180 -0.339759 0.430056
v 1.272846 -0.369905 0.775661
v 1.131431 -0.801725 0.383907
v -1.258435 -0.559992 0.321644
v -0.763436 -0.939322 0.450353
v -0.985722 -0.939057 -0.057406
v -0.533247 -0.917152 -0.875112
v -1.000901 -0.862014 -0.548026
v 0.170938 -0.224258 -1.303220
v -0.036732 -0.695427 -1.134499
v -0.757603 -0.688456 -0.941496
v -0.139606 -1.157749 0.427095
v 0.093719 -1.237608 -0.004744
v -0.529086 -1.198301 0.001262
v -0.275908 -1.211494 -0.280948
v -0.813393 -1.090876 -0.261879
v -0.496297 -1.090697 -0.627921
v 0.300960 -1.213807 -0.262750
v -0.159867 -1.125103 -0.677644
v 0.344761 0.611916 -1.103003
v 1.265645 -0.406358 -0.028245
v 1.031796 -0.733474 -0.110268
v 0.783109 0.714031 -0.697804
v 0.969181 0.773279 -0.212146
v 1.290679 0.160686 0.102344
v 0.862731 -1.018869 0.159763
v 0.455460 -1.103834 -0.493995
v 0.762523 -0.953177 -0.284209
v 0.147082 -0.980162 -0.819291
v 0.377917 -0.721580 -0.986088
v 0.721499 -0.822387 -0.630650
v 1.058761 -0.271359 -0.614818
v 1.119596 0.267165 -0.510586
v 0.883606 0.307638 -0.896583
v 0.489718 0.226252 -1.142838
v 0.579840 -0.268996 -1.094660
vn -0.305216 0.619007 0.723624
vn -0.672994 0.445021 0.590716
vn -0.624531 0.302286 0.720084
vn -0.616291 0.646016 0.450331
vn 0.120884 0.846278 0.518784
vn 0.321268 0.946104 0.040101
vn -0.112949 0.940245 0.321146
vn 0.414319 0.891415 0.183477
vn 0.545305 0.782098 0.301553
vn 0.545793 0.837764 -0.015229
vn -0.064669 0.434980 -0.898099
vn -0.273263 0.482315 -0.832240
vn 0.025361 0.819178 -0.572924
vn -0.402814 0.774682 -0.487411
vn 0.216498 0.952666 -0.213355
vn -0.157109 0.979827 -0.123417
vn 0.047670 0.402387 0.914212
vn 0.328410 0.669424 0.666311
vn 0.063814 0.654256 0.753533
vn -0.253426 0.417035 0.872799
vn -0.364208 0.121647 0.923307
vn -0.564623 -0.335276 0.754143
vn 0.214026 -0.048494 0.975616
vn 0.407636 0.292398 0.865047
vn 0.317087 -0.401227 0.859310
vn 0.640004 -0.135746 0.756279
vn 0.666951 0.549516 0.503159
vn 0.601856 0.294839 0.742149
vn 0.879971 0.207862 0.427076
vn 0.840968 0.540849 0.015229
vn -0.647053 0.357189 -0.673574
vn -0.420240 0.155126 -0.894040
vn -0.842555 0.064577 -0.534684
vn -0.985290 0.129978 -0.110721
vn -0.891568 0.418378 -0.173284
vn -0.768639 -0.256417 -0.585986
vn -0.561663 0.028779 -0.826838
vn -0.938078 -0.301340 -0.170782
vn -0.975341 0.070040 0.209235
vn -0.116398 -0.132267 0.984344
vn -0.250557 -0.672109 0.696738
vn 0.070559 -0.811518 0.580004
vn 0.605853 -0.638447 0.474624
vn 0.376965 -0.906125 0.191809
vn -0.812830 0.069491 0.578295
vn -0.852138 -0.434462 0.291604
vn 0.894009 -0.216773 0.392041
vn 0.986450 -0.162175 0.024476
vn 0.789941 -0.612903 0.016388
vn -0.482040 -0.788995 0.380840
vn -0.683309 -0.724265 0.092074
vn -0.499222 -0.087741 -0.861995
vn -0.490432 -0.407208 -0.770470
vn -0.276009 -0.692648 -0.666341
vn -0.672811 -0.643269 -0.365368
vn 0.399762 0.866451 -0.299020
vn 0.141850 0.141484 -0.979705
vn -0.261849 0.101810 -0.959685
vn 0.157567 -0.149144 -0.976165
vn -0.273202 -0.285470 -0.918607
vn 0.046907 -0.533921 -0.844203
vn -0.109775 -0.943510 0.312571
vn 0.051393 -0.996124 0.071352
vn -0.279061 -0.953581 0.113041
vn -0.486099 -0.868282 -0.098758
vn -0.267159 -0.881283 -0.389721
vn -0.013916 -0.885220 -0.464919
vn -0.099551 -0.984863 -0.141697
vn 0.324778 0.516160 -0.792505
vn 0.223579 0.783441 -0.579821
vn 0.768303 -0.563341 -0.303812
vn 0.930754 -0.266884 -0.249794
vn 0.593127 0.638691 -0.490158
vn 0.700369 0.676046 -0.228889
vn 0.980560 0.161779 -0.110935
vn 0.571947 -0.811060 -0.122593
vn 0.638569 -0.713553 -0.288125
vn 0.193182 -0.757714 -0.623310
vn 0.397961 -0.544939 -0.737968
vn 0.379315 -0.838496 -0.391125
vn 0.626545 -0.580096 -0.520463
vn 0.823725 -0.235206 -0.515854
vn 0.901700 0.206275 -0.379955
vn 0.453169 0.130741 -0.881771
vn 0.551530 -0.222755 -0.803827
vn 0.702048 0.202399 -0.682730
vn -0.265847 -0.021516 -0.963744
vn -0.791009 0.611316 -0.023164
vn 0.200110 -0.969024 -0.144597
vn -0.654225 0.736686 0.170904
s 1
f 14//1 15//2 16//3
f 22//4 15//2 14//1
f 29//5 30//6 26//7
f 30//6 29//5 28//8
f 28//8 6//9 8//10
f 14//1 29//5 26//7
f 3//11 10//12 11//13
f 11//13 10//12 12//14
f 30//6 25//15 26//7
f 24//16 26//7 25//15
f 31//17 7//18 27//19
f 2//20 16//3 32//21
f 33//22 32//21 16//3
f 36//23 35//24 31//17
f 36//23 52//25 38//26
f 7//18 31//17 35//24
f 39//27 6//9 7//18
f 35//24 39//27 7//18
f 37//28 39//27 35//24
f 37//28 38//26 40//29
f 41//30 8//10 6//9
f 6//9 39//27 41//30
f 10//12 13//31 12//14
f 10//12 43//32 13//31
f 48//33 19//34 20//35
f 49//36 48//33 44//37
f 48//33 49//36 50//38
f 19//34 48//33 50//38
f 19//34 50//38 18//39
f 36//23 1//40 52//25
f 35//24 36//23 38//26
f 37//28 35//24 38//26
f 34//41 51//42 52//25
f 52//25 51//42 53//43
f 38//26 52//25 53//43
f 53//43 51//42 54//44
f 17//45 18//39 58//46
f 40//29 38//26 56//47
f 55//48 40//29 56//47
f 38//26 53//43 56//47
f 54//44 57//49 53//43
f 50//38 58//46 18//39
f 56//47 53//43 57//49
f 33//22 17//45 58//46
f 33//22 58//46 59//50
f 59//50 58//46 60//51
f 34//41 33//22 59//50
f 58//46 50//38 60//51
f 45//52 65//53 49//36
f 65//53 61//54 62//55
f 5//56 25//15 30//6
f 9//57 42//58 3//11
f 42//58 9//57 63//59
f 61//54 46//60 64//61
f 46//60 61//54 65//53
f 49//36 65//53 62//55
f 45//52 46//60 65//53
f 51//42 34//41 66//62
f 59//50 66//62 34//41
f 51//42 66//62 67//63
f 66//62 59//50 68//64
f 60//51 70//65 68//64
f 59//50 60//51 68//64
f 60//51 62//55 70//65
f 71//66 70//65 62//55
f 71//66 73//67 69//68
f 71//66 61//54 73//67
f 64//61 73//67 61//54
f 9//57 3//11 74//69
f 3//11 4//70 74//69
f 57//49 76//71 75//72
f 77//73 74//69 4//70
f 78//74 77//73 5//56
f 8//10 41//30 78//74
f 55//48 75//72 79//75
f 57//49 54//44 80//76
f 76//71 57//49 80//76
f 76//71 80//76 82//77
f 73//67 64//61 83//78
f 83//78 64//61 84//79
f 81//80 85//81 82//77
f 76//71 82//77 85//81
f 76//71 85//81 86//82
f 75//72 86//82 87//83
f 41//30 79//75 87//83
f 74//69 89//84 9//57
f 90//85 86//82 85//81
f 89//84 88//86 90//85
f 2//20 14//1 16//3
f 26//7 22//4 14//1
f 4//70 3//11 11//13
f 17//45 33//22 16//3
f 1//40 36//23 31//17
f 13//31 48//33 20//35
f 45//52 49//36 44//37
f 1//40 34//41 52//25
f 55//48 56//47 57//49
f 47//87 42//58 63//59
f 54//44 51//42 67//63
f 61//54 71//66 62//55
f 55//48 57//49 75//72
f 5//56 77//73 4//70
f 8//10 78//74 5//56
f 75//72 76//71 86//82
f 79//75 75//72 87//83
f 78//74 41//30 87//83
f 84//79 90//85 85//81
f 88//86 86//82 90//85
f 2//20 32//21 31//17
f 18//39 20//35 19//34
f 32//21 1//40 31//17
f 18//39 21//88 20//35
f 30//6 8//10 5//56
f 72//89 73//67 81//80
f 18//39 23//90 21//88
f 85//81 81//80 84//79
f 73//67 83//78 81//80
f 18//39 17//45 23//90
f 81//80 83//78 84//79
f 82//77 80//76 81//80
f 17//45 15//2 23//90
f 80//76 72//89 81//80
f 15//2 22//4 23//90
f 23//90 26//7 24//16
f 72//89 69//68 73//67
f 16//3 15//2 17//45
f 40//29 79//75 41//30
f 22//4 26//7 23//90
f 67//63 69//68 72//89
f 80//76 54//44 72//89
f 28//8 8//10 30//6
f 31//17 27//19 29//5
f 54//44 67//63 72//89
f 39//27 40//29 41//30
f 45//52 47//87 46//60
f 27//19 7//18 29//5
f 40//29 55//48 79//75
f 45//52 44//37 47//87
f 14//1 31//17 29//5
f 68//64 70//65 69//68
f 44//37 42//58 47//87
f 2//20 31//17 14//1
f 70//65 71//66 69//68
f 9//57 89//84 63//59
f 44//37 43//32 42//58
f 67//63 68//64 69//68
f 89//84 90//85 63//59
f 43//32 10//12 42//58
f 39//27 37//28 40//29
f 48//33 13//31 44//37
f 90//85 84//79 63//59
f 10//12 3//11 42//58
f 13//31 43//32 44//37
f 84//79 64//61 63//59
f 60//51 50//38 62//55
f 64//61 46//60 63//59
f 28//8 29//5 6//9
f 66//62 68//64 67//63
f 50//38 49//36 62//55
f 46//60 47//87 63//59
f 29//5 7//18 6//9
f 77//73 88//86 74//69
f 11//13 25//15 4//70
f 77//73 87//83 88//86
f 25//15 5//56 4//70
f 87//83 86//82 88//86
f 1//40 33//22 34//41
f 12//14 24//16 11//13
f 20//35 12//14 13//31
f 24//16 25//15 11//13
f 20//35 21//88 12//14
f 74//69 88//86 89//84
f 1//40 32//21 33//22
f 78//74 87//83 77//73
f 21//88 23//90 12//14
f 23//90 24//16 12//14
